<svg xmlns="http://www.w3.org/2000/svg" width="29.609" height="29.609" viewBox="0 0 29.609 29.609">
  <g id="vuesax_outline_messages-2" data-name="vuesax/outline/messages-2" transform="translate(-428 -252)">
    <g id="messages-2" transform="translate(428 252)">
      <path id="Vector" d="M17.63,25.427a2.128,2.128,0,0,1-1.11-.308l-4.947-2.936a12.382,12.382,0,0,1-1.53-.123.938.938,0,0,1-.74-.592.9.9,0,0,1,.16-.925A4.992,4.992,0,0,0,10.7,17.247a5.658,5.658,0,0,0-5.86-5.416,6.059,6.059,0,0,0-3.343.975A.932.932,0,0,1,.062,12.14,9.77,9.77,0,0,1,0,11.091C0,4.972,5.305,0,11.819,0S23.638,4.972,23.638,11.091a10.71,10.71,0,0,1-4.293,8.55L19.764,23a2.164,2.164,0,0,1-2.134,2.43Zm-5.823-5.108a.79.79,0,0,1,.494.136l5.169,3.072a.274.274,0,0,0,.321,0,.3.3,0,0,0,.136-.308l-.481-3.9a.955.955,0,0,1,.382-.876,8.966,8.966,0,0,0,3.96-7.378c0-5.1-4.466-9.241-9.968-9.241-5.293,0-9.635,3.849-9.956,8.685a8.2,8.2,0,0,1,2.961-.555,7.5,7.5,0,0,1,7.711,7.267A6.727,6.727,0,0,1,11.807,20.319Z" transform="translate(4.417 1.555)"/>
      <path id="Vector-2" data-name="Vector" d="M4.1,16.544a1.644,1.644,0,0,1-.913-.271,1.691,1.691,0,0,1-.777-1.629l.247-1.9A7.1,7.1,0,0,1,0,7.267a7.124,7.124,0,0,1,3.368-6A7.95,7.95,0,0,1,7.711,0a7.5,7.5,0,0,1,7.711,7.267,6.953,6.953,0,0,1-1.678,4.5A7.73,7.73,0,0,1,7.97,14.521L4.96,16.31A1.685,1.685,0,0,1,4.1,16.544ZM7.7,1.851a6.059,6.059,0,0,0-3.343.975A5.288,5.288,0,0,0,1.838,7.267,5.156,5.156,0,0,0,4.158,11.56a.937.937,0,0,1,.395.876l-.271,2.11L7.23,12.794a.935.935,0,0,1,.469-.136,5.978,5.978,0,0,0,4.614-2.1,5.061,5.061,0,0,0,1.246-3.306A5.656,5.656,0,0,0,7.7,1.851Z" transform="translate(1.554 11.523)"/>
      <path id="Vector-3" data-name="Vector" d="M0,0H29.609V29.609H0Z" fill="none" opacity="0"/>
      <path id="Path_12770" data-name="Path 12770" d="M1.908-5.654a2.711,2.711,0,0,1-.721,1.418A2.775,2.775,0,0,0,.466-2.918v.162a.789.789,0,0,1-.458.12.659.659,0,0,1-.437-.12,1.311,1.311,0,0,1-.014-.318A2.4,2.4,0,0,1,.226-4.394a2.349,2.349,0,0,0,.662-1.3.607.607,0,0,0-.215-.469.92.92,0,0,0-.631-.214.956.956,0,0,0-.721.28.845.845,0,0,0-.236.6,1.664,1.664,0,0,1-.014.265,2.448,2.448,0,0,1-.489.052,1.15,1.15,0,0,1-.427-.052,2.767,2.767,0,0,1-.028-.334A1.283,1.283,0,0,1-1.4-6.548a2.183,2.183,0,0,1,1.5-.5,2.015,2.015,0,0,1,1.346.423A1.21,1.21,0,0,1,1.908-5.654ZM.59-1.445A.634.634,0,0,1,.421-1a.515.515,0,0,1-.39.184A.554.554,0,0,1-.389-1a.627.627,0,0,1-.172-.444.611.611,0,0,1,.172-.436.558.558,0,0,1,.421-.182.518.518,0,0,1,.39.182A.618.618,0,0,1,.59-1.445Z" transform="translate(9.247 23)"/>
    </g>
  </g>
</svg>
