<svg xmlns="http://www.w3.org/2000/svg" width="15.349" height="15.252" viewBox="0 0 15.349 15.252">
  <g id="vuesax_outline_box-tick" data-name="vuesax/outline/box-tick" transform="translate(0)">
    <g id="box-tick" transform="translate(0)">
      <path id="Vector" d="M3.038,6.037A3.036,3.036,0,0,1,.474,4.627,2.988,2.988,0,0,1,1.088.705,3.094,3.094,0,0,1,2.968,0,3.043,3.043,0,0,1,5.136.839a3,3,0,0,1,.524,3.686,2.905,2.905,0,0,1-.588.724A2.969,2.969,0,0,1,3.1,6.037Zm0-5.084H2.994A2.106,2.106,0,0,0,1.7,1.436,2.054,2.054,0,0,0,1.28,4.118a2.008,2.008,0,0,0,1.8.966,2.06,2.06,0,0,0,1.349-.54,1.937,1.937,0,0,0,.4-.489,2.047,2.047,0,0,0-.358-2.523A2.04,2.04,0,0,0,3.038.953Z" transform="translate(9.113 8.42)"/>
      <path id="Vector-2" data-name="Vector" d="M1.126,2.231A.482.482,0,0,1,.794,2.1l-.646-.61A.472.472,0,0,1,.135.814.479.479,0,0,1,.813.8l.313.3,1-.966a.479.479,0,0,1,.678.013A.472.472,0,0,1,2.8.821L1.459,2.1A.518.518,0,0,1,1.126,2.231Z" transform="translate(10.673 10.32)"/>
      <path id="Vector-3" data-name="Vector" d="M6.129,4.2a.479.479,0,0,1-.243-.064L.239.892A.478.478,0,1,1,.718.066l5.4,3.108L11.495.085a.478.478,0,1,1,.48.826L6.366,4.139A.506.506,0,0,1,6.129,4.2Z" transform="translate(1.545 4.249)"/>
      <path id="Vector-4" data-name="Vector" d="M.48,6.717A.482.482,0,0,1,0,6.241V.477a.48.48,0,0,1,.959,0V6.241A.482.482,0,0,1,.48,6.717Z" transform="translate(7.195 7.492)"/>
      <path id="Vector-5" data-name="Vector" d="M6.632,13.674a3.215,3.215,0,0,1-1.56-.369L1.656,11.425A3.462,3.462,0,0,1,0,8.635v-3.6a3.471,3.471,0,0,1,1.656-2.79L5.072.367a3.487,3.487,0,0,1,3.115,0L11.6,2.248a3.462,3.462,0,0,1,1.656,2.79v3.6a.834.834,0,0,1-.013.178.469.469,0,0,1-.313.356.494.494,0,0,1-.473-.089A2.1,2.1,0,0,0,9.81,9.035a2.044,2.044,0,0,0-.78,1.608,2,2,0,0,0,.3,1.061,1.608,1.608,0,0,0,.16.229.467.467,0,0,1,.109.394.476.476,0,0,1-.243.33l-1.17.642A3.124,3.124,0,0,1,6.632,13.674Zm0-12.71a2.342,2.342,0,0,0-1.087.241L2.13,3.087A2.523,2.523,0,0,0,.972,5.038v3.6A2.54,2.54,0,0,0,2.13,10.586l3.415,1.881a2.567,2.567,0,0,0,2.181,0l.716-.394a2.953,2.953,0,0,1-.365-1.43A2.987,2.987,0,0,1,9.216,8.285,3.127,3.127,0,0,1,12.3,7.86V5.025a2.54,2.54,0,0,0-1.158-1.951L7.732,1.193A2.613,2.613,0,0,0,6.632.964Z" transform="translate(1.042 0.783)"/>
      <path id="Vector-6" data-name="Vector" d="M0,0H15.349V15.252H0Z" fill="none" opacity="0"/>
    </g>
  </g>
</svg>
