<svg xmlns="http://www.w3.org/2000/svg" width="30.49" height="29" viewBox="0 0 30.49 29">
  <g id="vuesax_outline_truck-fast" data-name="vuesax/outline/truck-fast" transform="translate(0)">
    <g id="truck-fast" transform="translate(0)">
      <path id="Vector" d="M13.586,16.313H12.378a.906.906,0,1,1,0-1.812h1.208a1.511,1.511,0,0,0,1.51-1.51V1.813H2.128A3.938,3.938,0,0,0-1.3,3.83a.91.91,0,0,1-1.232.35.91.91,0,0,1-.35-1.233A5.762,5.762,0,0,1,2.128,0H16a.913.913,0,0,1,.906.906V12.99A3.321,3.321,0,0,1,13.586,16.313Z" transform="translate(3.611 1.51)" fill="#292d32"/>
      <path id="Vector-2" data-name="Vector" d="M21.448,19.938H20.24a.913.913,0,0,1-.906-.906,1.51,1.51,0,0,0-3.021,0,.913.913,0,0,1-.906.906H7.573a.913.913,0,0,1-.906-.906,1.51,1.51,0,0,0-3.021,0,.913.913,0,0,1-.906.906H1.531A4.533,4.533,0,0,1-3,15.406a.913.913,0,0,1,.906-.906.913.913,0,0,1,.906.906,2.723,2.723,0,0,0,2.719,2.719h.423a3.33,3.33,0,0,1,6.4,0h6.275a3.33,3.33,0,0,1,6.4,0h.411a2.723,2.723,0,0,0,2.719-2.719V12.688H21.448a2.125,2.125,0,0,1-2.115-2.115V6.948a2.117,2.117,0,0,1,2.115-2.115l-1.293-2.26a1.513,1.513,0,0,0-1.317-.761H17.521V9.365A3.321,3.321,0,0,1,14.2,12.688H12.99a.906.906,0,0,1,0-1.812H14.2a1.511,1.511,0,0,0,1.51-1.51V.906A.913.913,0,0,1,16.615,0h2.223a3.32,3.32,0,0,1,2.888,1.68l2.066,3.613a.93.93,0,0,1,0,.906.9.9,0,0,1-.785.447H21.448a.3.3,0,0,0-.3.3v3.625a.3.3,0,0,0,.3.3h3.625a.913.913,0,0,1,.906.906v3.625A4.533,4.533,0,0,1,21.448,19.938Z" transform="translate(3 5.135)" fill="#292d32"/>
      <path id="Vector-3" data-name="Vector" d="M3.323,6.646A3.323,3.323,0,1,1,6.646,3.323,3.321,3.321,0,0,1,3.323,6.646Zm0-4.833a1.51,1.51,0,1,0,1.51,1.51A1.511,1.511,0,0,0,3.323,1.813Z" transform="translate(4.833 20.844)" fill="#292d32"/>
      <path id="Vector-4" data-name="Vector" d="M3.323,6.646A3.323,3.323,0,1,1,6.646,3.323,3.321,3.321,0,0,1,3.323,6.646Zm0-4.833a1.51,1.51,0,1,0,1.51,1.51A1.511,1.511,0,0,0,3.323,1.813Z" transform="translate(17.5 20.844)" fill="#292d32"/>
      <path id="Vector-5" data-name="Vector" d="M5.74,7.854H2.115A2.125,2.125,0,0,1,0,5.74V2.115A2.125,2.125,0,0,1,2.115,0H3.673a.885.885,0,0,1,.785.459L6.525,4.084a.951.951,0,0,1,.121.447V6.948A.913.913,0,0,1,5.74,7.854ZM2.115,1.813a.3.3,0,0,0-.3.3V5.74a.3.3,0,0,0,.3.3H4.833V4.773L3.142,1.813Z" transform="translate(22.333 9.969)" fill="#292d32"/>
      <path id="Vector-6" data-name="Vector" d="M8.156,1.813H.906A.913.913,0,0,1,0,.906.913.913,0,0,1,.906,0h7.25a.913.913,0,0,1,.906.906A.913.913,0,0,1,8.156,1.813Z" transform="translate(0 8.76)" fill="#292d32"/>
      <path id="Vector-7" data-name="Vector" d="M5.74,1.813H.906A.913.913,0,0,1,0,.906.913.913,0,0,1,.906,0H5.74a.913.913,0,0,1,.906.906A.913.913,0,0,1,5.74,1.813Z" transform="translate(0 12.385)" fill="#292d32"/>
      <path id="Vector-8" data-name="Vector" d="M3.323,1.813H.906A.913.913,0,0,1,0,.906.913.913,0,0,1,.906,0H3.323a.913.913,0,0,1,.906.906A.913.913,0,0,1,3.323,1.813Z" transform="translate(0 16.01)" fill="#292d32"/>
      <path id="Vector-9" data-name="Vector" d="M0,0H29V29H0Z" transform="translate(1.49)" fill="none" opacity="0"/>
    </g>
  </g>
</svg>
