<svg id="vuesax_outline_3d-rotate" data-name="vuesax/outline/3d-rotate" xmlns="http://www.w3.org/2000/svg" width="29.697" height="30.139" viewBox="0 0 29.697 30.139">
  <g id="_3d-rotate" data-name="3d-rotate">
    <path id="Vector" d="M7.49,5.718a.912.912,0,0,1-.47-.126L.462,1.75A.94.94,0,0,1,.128.469.92.92,0,0,1,1.4.13L7.49,3.709,13.541.155a.933.933,0,0,1,1.274.339.945.945,0,0,1-.334,1.281L7.973,5.593A1.149,1.149,0,0,1,7.49,5.718Z" transform="translate(7.358 10.708)"/>
    <path id="Vector-2" data-name="Vector" d="M.928,8.715A.942.942,0,0,1,0,7.773V.942A.942.942,0,0,1,.928,0a.942.942,0,0,1,.928.942V7.773A.942.942,0,0,1,.928,8.715Z" transform="translate(13.92 14.542)"/>
    <path id="Vector-3" data-name="Vector" d="M8.055,16.969a4.176,4.176,0,0,1-1.992-.477L2.1,14.257A4.512,4.512,0,0,1,0,10.615V6.358A4.562,4.562,0,0,1,2.1,2.716L6.063.48a4.371,4.371,0,0,1,3.984,0l3.96,2.235a4.512,4.512,0,0,1,2.1,3.642v4.257a4.561,4.561,0,0,1-2.1,3.642l-3.96,2.235A4.176,4.176,0,0,1,8.055,16.969Zm0-15.07a2.255,2.255,0,0,0-1.089.239L3.007,4.373A2.634,2.634,0,0,0,1.856,6.358v4.257A2.612,2.612,0,0,0,3.007,12.6l3.96,2.235a2.543,2.543,0,0,0,2.178,0L13.1,12.6a2.634,2.634,0,0,0,1.151-1.984V6.358A2.612,2.612,0,0,0,13.1,4.373L9.144,2.138A2.255,2.255,0,0,0,8.055,1.9Z" transform="translate(6.793 6.577)"/>
    <path id="Vector-4" data-name="Vector" d="M.923,10.687a.929.929,0,0,1-.8-.477.972.972,0,0,1,.012-.954l1.3-2.2a.93.93,0,0,1,1.274-.327.948.948,0,0,1,.322,1.293l-.334.565A7.852,7.852,0,0,0,8.669.942a.928.928,0,1,1,1.856,0A9.7,9.7,0,0,1,.923,10.687Z" transform="translate(17.637 17.883)"/>
    <path id="Vector-5" data-name="Vector" d="M.928,10.674A.942.942,0,0,1,0,9.733,9.678,9.678,0,0,1,9.59,0a.929.929,0,0,1,.8.477.972.972,0,0,1-.012.954l-1.3,2.2a.93.93,0,0,1-1.274.327.948.948,0,0,1-.322-1.293L7.82,2.1A7.852,7.852,0,0,0,1.844,9.745.92.92,0,0,1,.928,10.674Z" transform="translate(1.547 1.57)"/>
    <path id="Vector-6" data-name="Vector" d="M0,0H29.7V30.139H0Z" fill="none" opacity="0"/>
  </g>
</svg>
