<svg xmlns="http://www.w3.org/2000/svg" xmlns:xlink="http://www.w3.org/1999/xlink" width="52.98" height="32.008" viewBox="0 0 52.98 32.008">
  <defs>
    <clipPath id="clip-path">
      <rect id="Rectangle_7671" data-name="Rectangle 7671" width="52.98" height="32.007" rx="4" transform="translate(-34 0)" fill="#fff" stroke="rgba(112,112,112,0.28)" stroke-width="1"/>
    </clipPath>
  </defs>
  <g id="Mask_Group_19127" data-name="Mask Group 19127" transform="translate(34)" clip-path="url(#clip-path)">
    <rect id="Rectangle_7672" data-name="Rectangle 7672" width="52.98" height="32.007" rx="4" transform="translate(-34 0)" fill="#ebebeb"/>
    <g id="stripe-seeklogo.com" transform="translate(-25.509 12.548)">
      <path id="Path_12738" data-name="Path 12738" d="M2.381,5.523c0-.367.3-.508.8-.508a5.248,5.248,0,0,1,2.334.6V3.406A6.205,6.205,0,0,0,3.18,2.973c-1.91,0-3.18,1-3.18,2.663,0,2.6,3.576,2.183,3.576,3.3,0,.433-.376.574-.9.574A5.857,5.857,0,0,1,.1,8.76V11a6.523,6.523,0,0,0,2.569.536c1.957,0,3.3-.969,3.3-2.653C5.966,6.079,2.381,6.577,2.381,5.523ZM8.742,1.092l-2.3.489L6.436,9.118a2.364,2.364,0,0,0,2.437,2.418,3.634,3.634,0,0,0,1.647-.31V9.316c-.3.122-1.788.555-1.788-.837V5.138H10.52v-2H8.732Zm4.7,2.738-.151-.7H11.263v8.233h2.352V5.787A1.659,1.659,0,0,1,15.4,5.3V3.133A1.6,1.6,0,0,0,13.446,3.83Zm2.531-.7h2.362v8.233H15.978Zm0-.715,2.362-.508V0L15.978.5Zm7.274.555a2.658,2.658,0,0,0-1.844.734l-.122-.583h-2.07V14.1l2.352-.5.009-2.663a2.65,2.65,0,0,0,1.665.593c1.684,0,3.218-1.355,3.218-4.338C26.451,4.46,24.9,2.973,23.251,2.973Zm-.565,6.483a1.406,1.406,0,0,1-1.11-.442l-.009-3.491a1.4,1.4,0,0,1,1.12-.461c.856,0,1.449.96,1.449,2.192C24.136,8.516,23.552,9.457,22.687,9.457ZM33.875,7.283c0-2.409-1.167-4.31-3.4-4.31s-3.595,1.9-3.595,4.291c0,2.832,1.6,4.263,3.9,4.263a5.247,5.247,0,0,0,2.606-.612V9.033a5,5,0,0,1-2.305.518c-.913,0-1.722-.32-1.825-1.43h4.6C33.856,8,33.875,7.509,33.875,7.283Zm-4.648-.894c0-1.063.649-1.506,1.242-1.506.574,0,1.186.442,1.186,1.506Z" fill="#6772e5"/>
    </g>
    <text id="Powered_By" data-name="Powered By" transform="translate(-25.509 10.549)" fill="#515461" font-size="5" font-family="Montserrat-SemiBold, Montserrat" font-weight="600"><tspan x="0" y="0">POWERED BY</tspan></text>
  </g>
</svg>
