<svg xmlns="http://www.w3.org/2000/svg" xmlns:xlink="http://www.w3.org/1999/xlink" width="37.781" height="22.826" viewBox="0 0 37.781 22.826">
  <defs>
    <clipPath id="clip-path">
      <rect id="Rectangle_7680" data-name="Rectangle 7680" width="37.781" height="22.826" rx="4" transform="translate(0 0)" fill="#fff" stroke="rgba(112,112,112,0.28)" stroke-width="1"/>
    </clipPath>
  </defs>
  <g id="_384578" data-name="384578" transform="translate(-36.529 -72.848)">
    <g id="Mask_Group_19130" data-name="Mask Group 19130" transform="translate(36.529 72.848)" clip-path="url(#clip-path)">
      <path id="Path_12750" data-name="Path 12750" d="M73.112,95.426H32.031A7.128,7.128,0,0,1,24.9,88.3V79.731A7.128,7.128,0,0,1,32.031,72.6H73.112a7.128,7.128,0,0,1,7.131,7.131V88.3A7.128,7.128,0,0,1,73.112,95.426Z" transform="translate(-33.421 -72.6)" fill="#5afeae"/>
    </g>
    <g id="Group_19179" data-name="Group 19179" transform="translate(40.808 79.979)">
      <path id="Path_12751" data-name="Path 12751" d="M67.067,87.919l-1.806,6.9v.022h1.415l1.806-6.9H67.067ZM44.738,91.837a1.458,1.458,0,0,1-.675.152c-.5,0-.783-.087-.827-.5V89.247h0V87.963l-1.262.152a1.56,1.56,0,0,0,1.328-1.5V86.2H41.887v1.937l-.087.022v3.569a1.615,1.615,0,0,0,1.785,1.61,2.773,2.773,0,0,0,1.132-.239h0l.022-1.262Z" transform="translate(-40.995 -86.2)" fill="#292929"/>
      <path id="Path_12752" data-name="Path 12752" d="M42.061,88.362l-3.961.609v1l3.961-.609Zm0,1.48-3.961.609v.958l3.961-.609Zm4.44.457a1.755,1.755,0,0,0-1.893-1.785,1.911,1.911,0,0,0-1.567.74,3.9,3.9,0,0,0,0,4.048,1.893,1.893,0,0,0,1.567.718A1.743,1.743,0,0,0,46.5,92.236v1.676h1.415V88.645l-1.415.218V90.3Zm.087.979c0,.979-.522,1.632-1.328,1.632-.827,0-1.328-.609-1.328-1.632s.5-1.632,1.328-1.632a1.207,1.207,0,0,1,.979.457,1.934,1.934,0,0,1,.348,1.175Zm5.441-2.764A1.743,1.743,0,0,0,50.135,90.3V87.1l-1.415.218v6.594h1.415V92.236a1.743,1.743,0,0,0,1.893,1.785c1.328,0,2.133-1.023,2.133-2.742S53.356,88.515,52.028,88.515Zm-.631,4.4c-.805,0-1.328-.631-1.328-1.632a1.934,1.934,0,0,1,.348-1.175,1.178,1.178,0,0,1,.979-.457c.827,0,1.328.609,1.328,1.632s-.5,1.632-1.328,1.632Zm6.594-4.4A1.743,1.743,0,0,0,56.1,90.3V87.1l-1.415.218v6.594H56.1V92.236a1.743,1.743,0,0,0,1.893,1.785c1.328,0,2.133-1.023,2.133-2.742s-.805-2.764-2.133-2.764Zm-.631,4.4c-.805,0-1.328-.631-1.328-1.632a1.934,1.934,0,0,1,.348-1.175,1.178,1.178,0,0,1,.979-.457c.827,0,1.328.609,1.328,1.632s-.5,1.632-1.328,1.632Zm2.764-4.287h1.5l1.219,5.288H61.5Zm6.616.544v-.414h-.174v-.087h.457v.087h-.174v.414Zm.3,0v-.522h.174l.087.239c.022.065.044.087.044.109,0-.022.022-.044.044-.109l.087-.239h.174v.522h-.109v-.414l-.152.414h-.109l-.131-.414v.414Z" transform="translate(-38.1 -86.904)" fill="#292929"/>
    </g>
  </g>
</svg>
