<svg xmlns="http://www.w3.org/2000/svg" xmlns:xlink="http://www.w3.org/1999/xlink" width="52.977" height="32.007" viewBox="0 0 52.977 32.007">
  <defs>
    <clipPath id="clip-path">
      <rect id="Rectangle_7680" data-name="Rectangle 7680" width="52.977" height="32.007" rx="4" transform="translate(36.916 72.85)" fill="#fff" stroke="rgba(112,112,112,0.28)" stroke-width="1"/>
    </clipPath>
  </defs>
  <g id="Tabby" transform="translate(-36.529 -72.848)">
    <g id="Mask_Group_19130" data-name="Mask Group 19130" transform="translate(-0.387 -0.002)" clip-path="url(#clip-path)">
      <path id="Path_12750" data-name="Path 12750" d="M92.5,104.607H34.9a9.995,9.995,0,0,1-10-10V82.6a9.995,9.995,0,0,1,10-10H92.5a9.995,9.995,0,0,1,10,10V94.608A9.995,9.995,0,0,1,92.5,104.607Z" transform="translate(0.068 0.25)" fill="#5afeae"/>
    </g>
    <g id="Group_19179" data-name="Group 19179" transform="translate(42.529 82.848)">
      <path id="Path_12751" data-name="Path 12751" d="M77.23,88.611,74.7,98.285v.031H76.68l2.533-9.674H77.23ZM45.92,94.1a2.045,2.045,0,0,1-.946.214c-.7,0-1.1-.122-1.16-.7V90.472h0v-1.8l-1.77.214a2.188,2.188,0,0,0,1.862-2.106V86.2H41.922v2.716l-.122.031v5a2.265,2.265,0,0,0,2.5,2.258,3.888,3.888,0,0,0,1.587-.336h0l.031-1.77Z" transform="translate(-40.671 -86.2)" fill="#292929"/>
      <path id="Path_12752" data-name="Path 12752" d="M43.654,88.87l-5.554.854v1.4l5.554-.854Zm0,2.075L38.1,91.8v1.343l5.554-.854Zm6.225.641a2.46,2.46,0,0,0-2.655-2.5,2.679,2.679,0,0,0-2.2,1.038,5.472,5.472,0,0,0,0,5.676,2.655,2.655,0,0,0,2.2,1.007,2.444,2.444,0,0,0,2.655-2.5v2.35h1.984V89.267l-1.984.305v2.014ZM50,92.959c0,1.373-.732,2.289-1.862,2.289-1.16,0-1.862-.854-1.862-2.289s.7-2.289,1.862-2.289a1.693,1.693,0,0,1,1.373.641A2.711,2.711,0,0,1,50,92.959Zm7.629-3.876a2.444,2.444,0,0,0-2.655,2.5V87.1l-1.984.305v9.246h1.984V94.3a2.444,2.444,0,0,0,2.655,2.5c1.861,0,2.991-1.434,2.991-3.845S59.492,89.084,57.631,89.084Zm-.885,6.164c-1.129,0-1.862-.885-1.862-2.289a2.711,2.711,0,0,1,.488-1.648,1.652,1.652,0,0,1,1.373-.641c1.16,0,1.862.854,1.862,2.289s-.7,2.289-1.862,2.289Zm9.246-6.164a2.444,2.444,0,0,0-2.655,2.5V87.1l-1.984.305v9.246h1.984V94.3a2.444,2.444,0,0,0,2.655,2.5c1.862,0,2.991-1.434,2.991-3.845s-1.129-3.876-2.991-3.876Zm-.885,6.164c-1.129,0-1.862-.885-1.862-2.289a2.711,2.711,0,0,1,.488-1.648,1.652,1.652,0,0,1,1.373-.641c1.16,0,1.861.854,1.861,2.289s-.7,2.289-1.861,2.289Zm3.876-6.012h2.106L72.8,96.652H70.905ZM78.26,90v-.58h-.244V89.3h.641v.122h-.244V90Zm.427,0v-.732h.244l.122.336c.031.092.061.122.061.153,0-.031.031-.061.061-.153l.122-.336h.244V90h-.153v-.58l-.214.58h-.153l-.183-.58V90Z" transform="translate(-38.1 -86.825)" fill="#292929"/>
    </g>
  </g>
</svg>
