<svg id="Group_18866" data-name="Group 18866" xmlns="http://www.w3.org/2000/svg" width="66.319" height="66.319" viewBox="0 0 66.319 66.319">
  <circle id="Ellipse_19" data-name="Ellipse 19" cx="33.16" cy="33.16" r="33.16" transform="translate(0)" fill="#efefef"/>
  <g id="Group_18861" data-name="Group 18861" transform="translate(26.501 14.978)">
    <path id="Path_11786" data-name="Path 11786" d="M46.277,24.843c.119-2.585-3.182-8.153-4.972-11.136a17.544,17.544,0,0,1-.994-1.79c-.318-.756,1.034-2.188,1.591-2.665.08-.04.08-.159.04-.239C40.033,4.081,36.1,5.076,36.056,5.076h-.04a8.372,8.372,0,0,0-2.7,1.989A6.448,6.448,0,0,0,31.8,11.28a4.1,4.1,0,0,0,1.114,2.784,39.547,39.547,0,0,1,.159,7.915,21.7,21.7,0,0,0-.278,5.608,18.865,18.865,0,0,0-.477,6.881c.159,1.352.358,2.824.557,4.415,0,.08.04.119.119.159.04,0,.08.04.119.04h.08a.039.039,0,0,0,.04-.04h.04c.119-.04.915-.159,1.273-.239h.04a5.99,5.99,0,0,0,2.9,1.909h.08a.219.219,0,0,0,.2-.119c2.028-4.455,6.483-11.932,6.722-12.25C46.277,26.116,46.277,25.042,46.277,24.843Zm-13.006,13.8c-.2-1.472-.358-2.9-.517-4.136a19.311,19.311,0,0,1,.477-6.761v-.08A21.309,21.309,0,0,1,33.51,22.1a35.113,35.113,0,0,0-.08-7.358l.358.477c.716.915,1.71,2.188,2.983,4.017.636.915,1.153,1.67,1.591,2.347-.676,2.426-2.068,7.08-2.108,7.159v.08a57.763,57.763,0,0,1-.08,6.324c-.278.8-.517,1.472-.716,1.949a6.355,6.355,0,0,1-.8,1.352,1.406,1.406,0,0,1-.239.04A11.512,11.512,0,0,0,33.272,38.644Zm3.42-9.864c.119-.438,1.313-4.375,1.989-6.761A19.025,19.025,0,0,1,40.709,25.4c-1.75,1.989-3.023,5.489-4.017,8.313C36.772,31.883,36.772,29.814,36.692,28.78Zm7.4-.636h0c-.08.119-4.574,7.557-6.682,12.171a5.838,5.838,0,0,1-2.426-1.591,5.28,5.28,0,0,0,.875-1.472c.278-.636.6-1.591.994-2.7.994-2.864,2.347-6.761,4.176-8.869.04-.04.08-.04.08-.08.08-.159.278-.517-3.977-6.6-1.313-1.83-2.307-3.1-3.023-4.057-1.392-1.79-1.869-2.386-1.869-3.659A6.029,6.029,0,0,1,33.63,7.343a7.061,7.061,0,0,1,2.545-1.869,5.222,5.222,0,0,1,.756-.08c1.153,0,3.3.477,4.534,3.619-.477.438-2.028,1.949-1.591,3.023.119.278.517.915,1.034,1.83,1.75,2.983,5.051,8.511,4.932,10.938v.04C45.84,24.883,45.959,25.837,44.09,28.144Z" transform="translate(-31.8 -4.994)" fill="#323232" stroke="#323232" stroke-width="1"/>
    <line id="Line_43" data-name="Line 43" x2="2.631" y2="1.385" transform="translate(3.945 32.884)" fill="none" stroke="#323232" stroke-width="1"/>
    <line id="Line_44" data-name="Line 44" x2="2.937" transform="translate(1.009 31.5)" fill="none" stroke="#323232" stroke-width="1"/>
    <path id="Path_11787" data-name="Path 11787" d="M.283.448a4.854,4.854,0,0,1,2.86-1.858A10.534,10.534,0,0,1,7.431-.5" transform="translate(1.998 9.789)" fill="none" stroke="#323232" stroke-width="1.5"/>
  </g>
</svg>
