<svg id="Group_18869" data-name="Group 18869" xmlns="http://www.w3.org/2000/svg" width="66.319" height="66.319" viewBox="0 0 66.319 66.319">
  <circle id="Ellipse_19" data-name="Ellipse 19" cx="33.16" cy="33.16" r="33.16" transform="translate(0)" fill="#efefef"/>
  <g id="Group_18860" data-name="Group 18860" transform="translate(17.283 20.74)">
    <path id="Path_11790" data-name="Path 11790" d="M19.271,30.956a7.694,7.694,0,0,1-6.826-4.184,6.587,6.587,0,0,1-7.56-10.79,5.914,5.914,0,0,1,2.422-1.028,1.862,1.862,0,0,1-.147-.881A8.066,8.066,0,0,1,21.326,8.789a6.552,6.552,0,0,1,8.735,3.23,7.015,7.015,0,0,1,.587,3.45,6.573,6.573,0,0,1-2.936,12.478,6.819,6.819,0,0,1-2.129-.367A7.675,7.675,0,0,1,19.271,30.956Zm-6.533-6.092h.147a.776.776,0,0,1,.514.44,6.263,6.263,0,0,0,8,3.743,6.661,6.661,0,0,0,3.3-2.716.8.8,0,0,1,.954-.294,5.188,5.188,0,0,0,6.826-2.569,6.368,6.368,0,0,0,.367-2.055,5.086,5.086,0,0,0-3.3-4.771.739.739,0,0,1-.44-.807A5.117,5.117,0,0,0,25.07,9.817a5.411,5.411,0,0,0-3.523.587.715.715,0,0,1-.954-.22,6.638,6.638,0,0,0-11.964,3.89A8.088,8.088,0,0,0,8.775,15.4a.743.743,0,0,1-.587.881H8.114A5.235,5.235,0,0,0,3.49,21.928a5.14,5.14,0,0,0,5.652,4.624,5.415,5.415,0,0,0,3.083-1.395A.554.554,0,0,1,12.738,24.864Z" transform="translate(-2.083 -6)" fill="#323232" stroke="#323232" stroke-width="0.6"/>
    <path id="Path_11791" data-name="Path 11791" d="M0,3.744S.705,1.237,2.218.292,6.112.2,6.112.2" transform="translate(8.948 4.311)" fill="none" stroke="#323232" stroke-linecap="round" stroke-width="1.5"/>
  </g>
</svg>
