<svg id="Group_18870" data-name="Group 18870" xmlns="http://www.w3.org/2000/svg" width="66.319" height="66.319" viewBox="0 0 66.319 66.319">
  <circle id="Ellipse_19" data-name="Ellipse 19" cx="33.16" cy="33.16" r="33.16" transform="translate(0)" fill="#efefef"/>
  <g id="Group" transform="translate(17.619 17)">
    <path id="Path" d="M1.493,0h0A5.108,5.108,0,0,0,0,3.607V5.228" transform="translate(15.796 24.629)" fill="none" stroke="#323232" stroke-linecap="round" stroke-linejoin="round" stroke-width="1.5"/>
    <path id="Path-2" data-name="Path" d="M0,0H0A5.108,5.108,0,0,1,1.493,3.607V5.228" transform="translate(14.302 24.629)" fill="none" stroke="#323232" stroke-linecap="round" stroke-linejoin="round" stroke-width="1.5"/>
    <path id="Path-3" data-name="Path" d="M14.115,0A19.2,19.2,0,0,1,0,0" transform="translate(8.738 16.563)" fill="none" stroke="#323232" stroke-linecap="round" stroke-linejoin="round" stroke-width="1.5"/>
    <path id="Path-4" data-name="Path" d="M0,.5H4.033" transform="translate(25.205 11.209)" fill="none" stroke="#323232" stroke-linecap="round" stroke-linejoin="round" stroke-width="1.5"/>
    <path id="Path-5" data-name="Path" d="M2.016,4.033,0,2.016,2.016,0" transform="translate(25.205 9.693)" fill="none" stroke="#323232" stroke-linecap="round" stroke-linejoin="round" stroke-width="1.5"/>
    <path id="Path-6" data-name="Path" d="M4.033.5H0" transform="translate(2.353 11.209)" fill="none" stroke="#323232" stroke-linecap="round" stroke-linejoin="round" stroke-width="1.5"/>
    <path id="Path-7" data-name="Path" d="M0,0,2.016,2.016,0,4.033" transform="translate(4.369 9.693)" fill="none" stroke="#323232" stroke-linecap="round" stroke-linejoin="round" stroke-width="1.5"/>
    <path id="Path-8" data-name="Path" d="M1.7,0,.892,2.229a14.808,14.808,0,0,0,.672,11.684h0A14.81,14.81,0,0,1,1.85,26.549l-.148.335" transform="translate(21.566 2.972)" fill="none" stroke="#323232" stroke-linecap="round" stroke-linejoin="round" stroke-width="1.5"/>
    <path id="Path-9" data-name="Path" d="M1.428,0l.807,2.229a14.808,14.808,0,0,1-.672,11.684h0a14.81,14.81,0,0,0-.286,12.636l.148.335" transform="translate(6.899 2.972)" fill="none" stroke="#323232" stroke-linecap="round" stroke-linejoin="round" stroke-width="1.5"/>
    <path id="Path-10" data-name="Path" d="M0,0A28.423,28.423,0,0,1,5.908-.754,24.358,24.358,0,0,1,11.541,0" transform="translate(10.025 13.431)" fill="none" stroke="#323232" stroke-linecap="round" stroke-linejoin="round" stroke-width="1.5"/>
    <rect id="Rectangle" width="32" height="33" transform="translate(0.138)" fill="none" stroke="#707070" stroke-width="1.5" opacity="0"/>
  </g>
</svg>
