<svg xmlns="http://www.w3.org/2000/svg" width="17.432" height="15.307" viewBox="0 0 17.432 15.307">
  <g id="noun-filters-1245151" transform="translate(-16 -20.1)">
    <g id="Group_18427" data-name="Group 18427" transform="translate(16 20.1)">
      <path id="Path_11768" data-name="Path 11768" d="M26.085,21.738H16.64a.64.64,0,0,0,0,1.28h9.445a2.288,2.288,0,0,0,2.2,1.638,2.257,2.257,0,0,0,2.176-1.638h2.329a.64.64,0,1,0,0-1.28H30.462a2.281,2.281,0,0,0-4.377,0Zm3.174.64a1,1,0,1,1-1-1A1.016,1.016,0,0,1,29.259,22.378Z" transform="translate(-16 -20.1)" fill="#888"/>
    </g>
    <g id="Group_18428" data-name="Group 18428" transform="translate(16 25.219)">
      <path id="Path_11769" data-name="Path 11769" d="M18.406,41.738H16.64a.64.64,0,0,0,0,1.28h1.766a2.288,2.288,0,0,0,2.2,1.638,2.257,2.257,0,0,0,2.176-1.638H32.792a.64.64,0,1,0,0-1.28H22.783a2.281,2.281,0,0,0-4.377,0Zm3.174.64a1,1,0,1,1-1-1A1,1,0,0,1,21.58,42.378Z" transform="translate(-16 -40.1)" fill="#888"/>
    </g>
    <g id="Group_18429" data-name="Group 18429" transform="translate(16 30.851)">
      <path id="Path_11770" data-name="Path 11770" d="M23.014,63.738H16.64a.64.64,0,0,0,0,1.28h6.374a2.288,2.288,0,0,0,2.2,1.638,2.257,2.257,0,0,0,2.176-1.638h5.4a.64.64,0,0,0,0-1.28h-5.4a2.281,2.281,0,0,0-4.377,0Zm3.174.64a1,1,0,1,1-1-1A1,1,0,0,1,26.188,64.378Z" transform="translate(-16 -62.1)" fill="#888"/>
    </g>
  </g>
</svg>
