<svg xmlns="http://www.w3.org/2000/svg" width="40" height="40" viewBox="0 0 40 40">
  <g id="Group_18913" data-name="Group 18913" transform="translate(-1470 -1009)">
    <rect id="Rectangle_7579" data-name="Rectangle 7579" width="40" height="40" transform="translate(1470 1009)" opacity="0.32"/>
    <g id="Group_19002" data-name="Group 19002" transform="translate(35 1)">
      <g id="vuesax_outline_add-square" data-name="vuesax/outline/add-square" transform="translate(823 764)">
        <g id="add-square">
          <g id="Vector" transform="translate(627.25 263.25)" fill="#fff">
            <path d="M 8.75 1.549999952316284 L 0.75 1.549999952316284 C 0.3088800013065338 1.549999952316284 -0.05000000074505806 1.191120028495789 -0.05000000074505806 0.75 C -0.05000000074505806 0.3088800013065338 0.3088800013065338 -0.05000000074505806 0.75 -0.05000000074505806 L 8.75 -0.05000000074505806 C 9.191120147705078 -0.05000000074505806 9.550000190734863 0.3088800013065338 9.550000190734863 0.75 C 9.550000190734863 1.191120028495789 9.191120147705078 1.549999952316284 8.75 1.549999952316284 Z" stroke="none"/>
            <path d="M 8.75 1.5 C 9.159999847412109 1.5 9.5 1.159999966621399 9.5 0.75 C 9.5 0.3400000035762787 9.159999847412109 -1.110223024625157e-16 8.75 -1.110223024625157e-16 L 0.75 -1.110223024625157e-16 C 0.3400000035762787 -1.110223024625157e-16 0 0.3400000035762787 0 0.75 C 0 1.159999966621399 0.3400000035762787 1.5 0.75 1.5 L 8.75 1.5 M 8.75 1.600000023841858 L 0.75 1.600000023841858 C 0.2813099920749664 1.600000023841858 -0.1000000014901161 1.218690037727356 -0.1000000014901161 0.75 C -0.1000000014901161 0.2813099920749664 0.2813099920749664 -0.1000000014901161 0.75 -0.1000000014901161 L 8.75 -0.1000000014901161 C 9.218689918518066 -0.1000000014901161 9.600000381469727 0.2813099920749664 9.600000381469727 0.75 C 9.600000381469727 1.218690037727356 9.218689918518066 1.600000023841858 8.75 1.600000023841858 Z" stroke="none" fill="#f5f5f5"/>
          </g>
          <g id="Vector-2" data-name="Vector" transform="translate(621.25 253.25)" fill="#fff">
            <path d="M 13.75 21.54999923706055 L 7.75 21.54999923706055 C 4.995689868927002 21.54999923706055 3.050539970397949 20.94375038146973 1.803390026092529 19.69660949707031 C 0.5562499761581421 18.44945907592773 -0.05000000074505806 16.50431060791016 -0.05000000074505806 13.75 L -0.05000000074505806 7.75 C -0.05000000074505806 4.995689868927002 0.5562499761581421 3.050539970397949 1.803390026092529 1.803390026092529 C 3.050539970397949 0.5562499761581421 4.995689868927002 -0.05000000074505806 7.75 -0.05000000074505806 L 13.75 -0.05000000074505806 C 16.50431060791016 -0.05000000074505806 18.44945907592773 0.5562499761581421 19.69660949707031 1.803390026092529 C 20.94375038146973 3.050539970397949 21.54999923706055 4.995689868927002 21.54999923706055 7.75 L 21.54999923706055 13.75 C 21.54999923706055 16.50431060791016 20.94375038146973 18.44945907592773 19.69660949707031 19.69660949707031 C 18.44945907592773 20.94375038146973 16.50431060791016 21.54999923706055 13.75 21.54999923706055 Z M 7.75 1.549999952316284 C 3.172430038452148 1.549999952316284 1.549999952316284 3.172430038452148 1.549999952316284 7.75 L 1.549999952316284 13.75 C 1.549999952316284 18.32756996154785 3.172430038452148 19.95000076293945 7.75 19.95000076293945 L 13.75 19.95000076293945 C 18.32756996154785 19.95000076293945 19.95000076293945 18.32756996154785 19.95000076293945 13.75 L 19.95000076293945 7.75 C 19.95000076293945 3.172430038452148 18.32756996154785 1.549999952316284 13.75 1.549999952316284 L 7.75 1.549999952316284 Z" stroke="none"/>
            <path d="M 13.75 21.5 C 19.18000030517578 21.5 21.5 19.18000030517578 21.5 13.75 L 21.5 7.75 C 21.5 2.319999933242798 19.18000030517578 0 13.75 0 L 7.75 0 C 2.319999933242798 0 0 2.319999933242798 0 7.75 L 0 13.75 C 0 19.18000030517578 2.319999933242798 21.5 7.75 21.5 L 13.75 21.5 M 7.75 1.5 L 13.75 1.5 C 18.36000061035156 1.5 20 3.140000104904175 20 7.75 L 20 13.75 C 20 18.36000061035156 18.36000061035156 20 13.75 20 L 7.75 20 C 3.140000104904175 20 1.5 18.36000061035156 1.5 13.75 L 1.5 7.75 C 1.5 3.140000104904175 3.140000104904175 1.5 7.75 1.5 M 13.75 21.60000038146973 L 7.75 21.60000038146973 C 4.981750011444092 21.60000038146973 3.025039911270142 20.98896026611328 1.76803994178772 19.73196029663086 C 0.5110399723052979 18.47496032714844 -0.1000000014901161 16.51824951171875 -0.1000000014901161 13.75 L -0.1000000014901161 7.75 C -0.1000000014901161 4.981750011444092 0.5110399723052979 3.025039911270142 1.76803994178772 1.76803994178772 C 3.025039911270142 0.5110399723052979 4.981750011444092 -0.1000000014901161 7.75 -0.1000000014901161 L 13.75 -0.1000000014901161 C 16.51824951171875 -0.1000000014901161 18.47496032714844 0.5110399723052979 19.73196029663086 1.76803994178772 C 20.98896026611328 3.025039911270142 21.60000038146973 4.981750011444092 21.60000038146973 7.75 L 21.60000038146973 13.75 C 21.60000038146973 16.51824951171875 20.98896026611328 18.47496032714844 19.73196029663086 19.73196029663086 C 18.47496032714844 20.98896026611328 16.51824951171875 21.60000038146973 13.75 21.60000038146973 Z M 7.75 1.600000023841858 C 5.419400215148926 1.600000023841858 3.89955997467041 2.034359931945801 2.966959953308105 2.966959953308105 C 2.034359931945801 3.89955997467041 1.600000023841858 5.419400215148926 1.600000023841858 7.75 L 1.600000023841858 13.75 C 1.600000023841858 16.08060073852539 2.034359931945801 17.60043907165527 2.966959953308105 18.53303909301758 C 3.89955997467041 19.46563911437988 5.419400215148926 19.89999961853027 7.75 19.89999961853027 L 13.75 19.89999961853027 C 16.08060073852539 19.89999961853027 17.60043907165527 19.46563911437988 18.53303909301758 18.53303909301758 C 19.46563911437988 17.60043907165527 19.89999961853027 16.08060073852539 19.89999961853027 13.75 L 19.89999961853027 7.75 C 19.89999961853027 5.419400215148926 19.46563911437988 3.89955997467041 18.53303909301758 2.966959953308105 C 17.60043907165527 2.034359931945801 16.08060073852539 1.600000023841858 13.75 1.600000023841858 L 7.75 1.600000023841858 Z" stroke="none" fill="#f5f5f5"/>
          </g>
          <g id="Vector-3" data-name="Vector" transform="translate(620 252)" fill="none" opacity="0">
            <path d="M0,0H24V24H0Z" stroke="none"/>
            <path d="M 0 0 L 0 24 L 24 24 L 24 0 L 0 0 M -0.1000003814697266 -0.1000003814697266 L 24.10000038146973 -0.1000003814697266 L 24.10000038146973 24.10000038146973 L -0.1000003814697266 24.10000038146973 L -0.1000003814697266 -0.1000003814697266 Z" stroke="none" fill="#f5f5f5"/>
          </g>
        </g>
      </g>
    </g>
  </g>
</svg>
