<svg xmlns="http://www.w3.org/2000/svg" width="37" height="37" viewBox="0 0 37 37">
  <g id="Group_18424" data-name="Group 18424" transform="translate(-20 -37)">
    <rect id="Rectangle_7435" data-name="Rectangle 7435" width="37" height="37" transform="translate(20 37)"/>
    <g id="noun-share-5783245" transform="translate(22.743 40.078)">
      <g id="Group_18394" data-name="Group 18394" transform="translate(6.357 5.422)">
        <path id="Path_11764" data-name="Path 11764" d="M841.206,17.246a2.849,2.849,0,1,0,2.849,2.849A2.856,2.856,0,0,0,841.206,17.246Zm0,.963a1.886,1.886,0,1,1-1.886,1.886A1.879,1.879,0,0,1,841.206,18.209Z" transform="translate(-838.358 -9.656)" fill="#fff" stroke="#fff" stroke-width="0.6"/>
        <path id="Path_11765" data-name="Path 11765" d="M853.994,9.879l-9.089,5.372a.481.481,0,1,0,.49.829l9.088-5.372a.481.481,0,1,0-.49-.829Zm-8.984,8.843a.482.482,0,0,0-.125.881l9.11,5.384a.481.481,0,1,0,.49-.829l-9.11-5.384a.481.481,0,0,0-.365-.053Z" transform="translate(-840.61 -6.994)" fill="#fff" stroke="#fff" stroke-width="0.6"/>
        <path id="Path_11766" data-name="Path 11766" d="M861.616,5.422a2.849,2.849,0,1,0,2.849,2.849A2.856,2.856,0,0,0,861.616,5.422Zm0,.963a1.886,1.886,0,1,1-1.886,1.886A1.879,1.879,0,0,1,861.616,6.385Z" transform="translate(-845.666 -5.422)" fill="#fff" stroke="#fff" stroke-width="0.6"/>
        <path id="Path_11767" data-name="Path 11767" d="M861.616,27.7a2.849,2.849,0,1,0,2.849,2.849A2.856,2.856,0,0,0,861.616,27.7Zm0,.963a1.886,1.886,0,1,1-1.886,1.886A1.879,1.879,0,0,1,861.616,28.666Z" transform="translate(-845.666 -13.4)" fill="#fff" stroke="#fff" stroke-width="0.6"/>
      </g>
    </g>
  </g>
</svg>
