<svg xmlns="http://www.w3.org/2000/svg" width="100" height="100" viewBox="0 0 100 100">
  <g id="Group_18628" data-name="Group 18628" transform="translate(-1073 -3153)">
    <circle id="Ellipse_19" data-name="Ellipse 19" cx="50" cy="50" r="50" transform="translate(1073 3153)" fill="#efefef"/>
    <g id="Group" transform="translate(1095.586 3175.586)">
      <path id="Path" d="M3.722,32.358A20.56,20.56,0,1,1,8.764,37.4l-6.482,1.44Z" transform="translate(6.852 6.853)" fill="none" stroke="#323232" stroke-linecap="round" stroke-linejoin="round" stroke-width="3"/>
      <path id="Path-2" data-name="Path" d="M7.6,1.177a2.111,2.111,0,0,1,3.786,0l1.3,2.635a2.111,2.111,0,0,0,1.589,1.155l2.907.423a2.111,2.111,0,0,1,1.17,3.6l-2.1,2.052a2.111,2.111,0,0,0-.607,1.868l.5,2.895a2.111,2.111,0,0,1-3.062,2.225l-2.6-1.367a2.111,2.111,0,0,0-1.964,0l-2.6,1.367A2.111,2.111,0,0,1,2.851,15.8l.5-2.895a2.111,2.111,0,0,0-.607-1.868L.637,8.989a2.111,2.111,0,0,1,1.17-3.6l2.907-.423A2.111,2.111,0,0,0,6.3,3.811Z" transform="translate(17.918 17.524)" fill="none" stroke="#323232" stroke-linecap="round" stroke-linejoin="round" stroke-width="3"/>
      <rect id="Rectangle" width="54.828" height="54.828" fill="none" stroke="#707070" stroke-width="3" opacity="0"/>
    </g>
  </g>
</svg>
