<svg xmlns="http://www.w3.org/2000/svg" width="100" height="100" viewBox="0 0 100 100">
  <g id="Group_18629" data-name="Group 18629" transform="translate(-1073 -3153)">
    <circle id="Ellipse_19" data-name="Ellipse 19" cx="50" cy="50" r="50" transform="translate(1073 3153)" fill="#efefef"/>
    <g id="Group" transform="translate(1095.835 3175.835)">
      <rect id="Rectangle" width="41.121" height="41.121" rx="5" transform="translate(47.974 47.974) rotate(180)" fill="none" stroke="#323232" stroke-linecap="round" stroke-linejoin="round" stroke-width="3"/>
      <path id="Path" d="M34.411,0,0,34.414" transform="translate(10.2 10.216)" fill="none" stroke="#323232" stroke-linecap="round" stroke-linejoin="round" stroke-width="3"/>
      <path id="Path-2" data-name="Path" d="M.644.483a.114.114,0,1,1-.16,0,.114.114,0,0,1,.16,0" transform="translate(21.319 21.313)" fill="none" stroke="#323232" stroke-linecap="round" stroke-linejoin="round" stroke-width="3"/>
      <path id="Path-3" data-name="Path" d="M11.064,0l2.444,2.444a2.792,2.792,0,0,1,0,3.95L6.4,13.51a2.794,2.794,0,0,1-3.952,0L0,11.064" transform="translate(25.653 25.65)" fill="none" stroke="#323232" stroke-linecap="round" stroke-linejoin="round" stroke-width="3"/>
      <path id="Path-4" data-name="Path" d="M14.331,3.26,11.879.811A2.769,2.769,0,0,0,9.9,0L5.924.037A2.757,2.757,0,0,0,3.991.845L.811,4.03A2.767,2.767,0,0,0,0,5.986V9.91a2.76,2.76,0,0,0,.811,1.956l2.456,2.458" transform="translate(14.849 14.849)" fill="none" stroke="#323232" stroke-linecap="round" stroke-linejoin="round" stroke-width="3"/>
      <path id="Path-5" data-name="Path" d="M0,0H54.828V54.828H0Z" fill="none" stroke="#707070" stroke-width="3" opacity="0"/>
    </g>
  </g>
</svg>
