<svg xmlns="http://www.w3.org/2000/svg" width="100" height="100" viewBox="0 0 100 100">
  <g id="Group_18630" data-name="Group 18630" transform="translate(-1073 -3153)">
    <circle id="Ellipse_19" data-name="Ellipse 19" cx="50" cy="50" r="50" transform="translate(1073 3153)" fill="#efefef"/>
    <g id="Group" transform="translate(1095.586 3175.586)">
      <path id="Path" d="M6.785,0V6.335a.56.56,0,0,1-.838.493,3.975,3.975,0,1,0,0,6.9.56.56,0,0,1,.838.493V20.56h6.335a.56.56,0,0,0,.493-.838,3.975,3.975,0,1,1,6.9,0,.56.56,0,0,0,.493.838h6.335" transform="translate(20.629 6.853)" fill="none" stroke="#323232" stroke-linecap="round" stroke-linejoin="round" stroke-width="3"/>
      <path id="Path-2" data-name="Path" d="M20.56,20.56V14.226a.56.56,0,0,1,.838-.493,3.975,3.975,0,1,0,0-6.9.56.56,0,0,1-.838-.493V0H14.225a.56.56,0,0,0-.493.838,3.975,3.975,0,1,1-6.9,0A.56.56,0,0,0,6.335,0H0" transform="translate(6.853 27.414)" fill="none" stroke="#323232" stroke-linecap="round" stroke-linejoin="round" stroke-width="3"/>
      <rect id="Rectangle" width="41.121" height="41.121" rx="11" transform="translate(6.853 6.853)" fill="none" stroke="#323232" stroke-linecap="round" stroke-linejoin="round" stroke-width="3"/>
      <rect id="Rectangle-2" data-name="Rectangle" width="54.827" height="54.827" fill="none" stroke="#323232" stroke-linecap="round" stroke-linejoin="round" stroke-width="3" opacity="0"/>
    </g>
  </g>
</svg>
