<svg xmlns="http://www.w3.org/2000/svg" width="100" height="100" viewBox="0 0 100 100">
  <g id="Group_18631" data-name="Group 18631" transform="translate(-1073 -3153)">
    <circle id="Ellipse_19" data-name="Ellipse 19" cx="50" cy="50" r="50" transform="translate(1073 3153)" fill="#efefef"/>
    <g id="Group" transform="translate(1095.412 3175.413)">
      <g id="Group-2" data-name="Group" transform="translate(4.016 6.897)">
        <path id="Path" d="M0,0,2.865,2.865,5.729,0" transform="translate(41.413 23.003)" fill="none" stroke="#323232" stroke-linecap="round" stroke-linejoin="round" stroke-width="3"/>
        <path id="Path-2" data-name="Path" d="M5.729,2.865,2.865,0,0,2.865" transform="translate(0 15.513)" fill="none" stroke="#323232" stroke-linecap="round" stroke-linejoin="round" stroke-width="3"/>
        <path id="Path-3" data-name="Path" d="M0,3.377a3.377,3.377,0,1,1,6.754,0C6.754,7.6,0,7.6,0,12.6H6.754" transform="translate(23.662 14.391)" fill="none" stroke="#323232" stroke-linecap="round" stroke-linejoin="round" stroke-width="3"/>
        <path id="Path-4" data-name="Path" d="M.5,0V12.46" transform="translate(17.054 14.529)" fill="none" stroke="#323232" stroke-linecap="round" stroke-linejoin="round" stroke-width="3"/>
        <path id="Path-5" data-name="Path" d="M36.852,17.578A20.657,20.657,0,0,1,20.711,25.33H20.7A20.7,20.7,0,0,1,0,4.635,20.669,20.669,0,0,1,.54,0" transform="translate(2.865 16.051)" fill="none" stroke="#323232" stroke-linecap="round" stroke-linejoin="round" stroke-width="3"/>
        <path id="Path-6" data-name="Path" d="M0,7.752A20.674,20.674,0,0,1,36.3,25.33" transform="translate(7.435 0)" fill="none" stroke="#323232" stroke-linecap="round" stroke-linejoin="round" stroke-width="3"/>
      </g>
      <path id="Path-7" data-name="Path" d="M0,0H55.175V55.175H0Z" fill="none" stroke="#323232" stroke-linecap="round" stroke-linejoin="round" stroke-width="3" opacity="0"/>
    </g>
  </g>
</svg>
