<svg xmlns="http://www.w3.org/2000/svg" width="17.221" height="21.9" viewBox="0 0 17.221 21.9">
  <g id="noun-tiktok-3861486" transform="translate(-11 -5.2)">
    <path id="Path_12700" data-name="Path 12700" d="M27.819,7.82a.392.392,0,0,0-.363-.04A2.205,2.205,0,0,1,24.35,5.8a.414.414,0,0,0-.4-.4H19.832a.381.381,0,0,0-.4.4V20.2a1.364,1.364,0,0,1-1.371,1.25,1.429,1.429,0,0,1-1.412-1.412,1.364,1.364,0,0,1,1.25-1.371.429.429,0,0,0,.363-.4V13.589a.381.381,0,0,0-.4-.4h-.081a6.86,6.86,0,1,0,7.1,7.462.243.243,0,0,0,.04-.161V12.7a7.131,7.131,0,0,0,2.783.121.393.393,0,0,0,.323-.4V8.143A.411.411,0,0,0,27.819,7.82ZM27.214,12.1a6.341,6.341,0,0,1-2.622-.282.57.57,0,0,0-.363.04.367.367,0,0,0-.161.323v8.148a.148.148,0,0,1-.04.121,6.037,6.037,0,0,1-12.061-.4,5.982,5.982,0,0,1,5.446-6.01v3.913a2.2,2.2,0,0,0,.605,4.316A2.212,2.212,0,0,0,20.2,20.406a.243.243,0,0,0,.04-.161V6.207h3.348a3.2,3.2,0,0,0,.565,1.371,2.975,2.975,0,0,0,3.066,1.129Z" transform="translate(0 0)" fill="#787878" stroke="#787878" stroke-width="0.4"/>
  </g>
</svg>
