<svg xmlns="http://www.w3.org/2000/svg" width="17.519" height="18.6" viewBox="0 0 17.519 18.6">
  <g id="Group_19029" data-name="Group 19029" transform="translate(-7.249 -6.824)">
    <g id="noun-share-5783245" transform="translate(7.549 7.124)">
      <g id="Group_18394" data-name="Group 18394" transform="translate(0 0)">
        <path id="Path_11764" data-name="Path 11764" d="M840.921,17.246a2.564,2.564,0,1,0,2.564,2.564A2.57,2.57,0,0,0,840.921,17.246Zm0,.867a1.7,1.7,0,1,1-1.7,1.7A1.691,1.691,0,0,1,840.921,18.113Z" transform="translate(-838.358 -10.415)" stroke="#000" stroke-width="0.6"/>
        <path id="Path_11765" data-name="Path 11765" d="M853.059,9.872l-8.18,4.835a.433.433,0,1,0,.441.746l8.18-4.835a.433.433,0,1,0-.441-.746Zm-8.086,7.959a.434.434,0,0,0-.113.793l8.2,4.845a.433.433,0,0,0,.441-.746l-8.2-4.845a.433.433,0,0,0-.328-.047Z" transform="translate(-841.014 -7.275)" stroke="#000" stroke-width="0.6"/>
        <path id="Path_11766" data-name="Path 11766" d="M861.331,5.422A2.564,2.564,0,1,0,863.9,7.986,2.57,2.57,0,0,0,861.331,5.422Zm0,.867a1.7,1.7,0,1,1-1.7,1.7A1.691,1.691,0,0,1,861.331,6.288Z" transform="translate(-846.976 -5.422)" stroke="#000" stroke-width="0.6"/>
        <path id="Path_11767" data-name="Path 11767" d="M861.331,27.7a2.564,2.564,0,1,0,2.564,2.564A2.57,2.57,0,0,0,861.331,27.7Zm0,.867a1.7,1.7,0,1,1-1.7,1.7A1.691,1.691,0,0,1,861.331,28.57Z" transform="translate(-846.976 -14.83)" stroke="#000" stroke-width="0.6"/>
      </g>
    </g>
  </g>
</svg>
