<svg xmlns="http://www.w3.org/2000/svg" width="39" height="39" viewBox="0 0 39 39">
  <g id="Group_18424" data-name="Group 18424" transform="translate(-20 -37)">
    <rect id="Rectangle_7435" data-name="Rectangle 7435" width="39" height="39" transform="translate(20 37)" opacity="0.32"/>
    <g id="noun-share-5783245" transform="translate(29.593 45.959)">
      <g id="Group_18394" data-name="Group 18394" transform="translate(0 0)">
        <path id="Path_11764" data-name="Path 11764" d="M841.36,17.246a3,3,0,1,0,3,3A3.01,3.01,0,0,0,841.36,17.246Zm0,1.015a1.988,1.988,0,1,1-1.987,1.988A1.98,1.98,0,0,1,841.36,18.261Z" transform="translate(-838.358 -9.246)" fill="#fff" stroke="#fff" stroke-width="0.6"/>
        <path id="Path_11765" data-name="Path 11765" d="M854.5,9.882l-9.58,5.663a.507.507,0,1,0,.517.874l9.58-5.663a.507.507,0,1,0-.517-.874Zm-9.47,9.321a.508.508,0,0,0-.132.929l9.6,5.675a.507.507,0,1,0,.517-.874l-9.6-5.675a.507.507,0,0,0-.385-.056Z" transform="translate(-840.392 -6.841)" fill="#fff" stroke="#fff" stroke-width="0.6"/>
        <path id="Path_11766" data-name="Path 11766" d="M861.77,5.422a3,3,0,1,0,3,3A3.01,3.01,0,0,0,861.77,5.422Zm0,1.015a1.988,1.988,0,1,1-1.987,1.988A1.98,1.98,0,0,1,861.77,6.437Z" transform="translate(-844.958 -5.422)" fill="#fff" stroke="#fff" stroke-width="0.6"/>
        <path id="Path_11767" data-name="Path 11767" d="M861.77,27.7a3,3,0,1,0,3,3A3.01,3.01,0,0,0,861.77,27.7Zm0,1.015a1.988,1.988,0,1,1-1.987,1.988A1.98,1.98,0,0,1,861.77,28.718Z" transform="translate(-844.958 -12.627)" fill="#fff" stroke="#fff" stroke-width="0.6"/>
      </g>
    </g>
  </g>
</svg>
