<?xml version="1.0" encoding="UTF-8"?>
<!DOCTYPE svg PUBLIC "-//W3C//DTD SVG 1.1//EN" "http://www.w3.org/Graphics/SVG/1.1/DTD/svg11.dtd">
<svg xmlns="http://www.w3.org/2000/svg" version="1.1" width="137px" height="125px" style="shape-rendering:geometricPrecision; text-rendering:geometricPrecision; image-rendering:optimizeQuality; fill-rule:evenodd; clip-rule:evenodd" xmlns:xlink="http://www.w3.org/1999/xlink">
<g><path style="opacity:1" fill="#fcfcfc" d="M -0.5,-0.5 C 45.1667,-0.5 90.8333,-0.5 136.5,-0.5C 136.5,41.1667 136.5,82.8333 136.5,124.5C 90.8333,124.5 45.1667,124.5 -0.5,124.5C -0.5,82.8333 -0.5,41.1667 -0.5,-0.5 Z"/></g>
<g><path style="opacity:1" fill="#161616" d="M 30.5,5.5 C 46.2094,3.61137 58.7094,8.9447 68,21.5C 81.6643,3.97931 98.1643,0.81264 117.5,12C 129.384,22.7135 133.217,35.8801 129,51.5C 127.527,55.7789 125.527,59.7789 123,63.5C 111.429,77.073 98.5956,89.2396 84.5,100C 78.9405,106.303 73.2738,112.47 67.5,118.5C 57.0073,104.508 44.6739,92.3409 30.5,82C 25.3333,76.8333 20.1667,71.6667 15,66.5C 4.69444,52.3615 3.02778,37.3615 10,21.5C 15.1407,13.8636 21.974,8.53027 30.5,5.5 Z"/></g>
<g><path style="opacity:1" fill="#fdfdfd" d="M 32.5,7.5 C 47.8372,6.68711 59.6705,12.6871 68,25.5C 81.2134,6.85238 97.7134,3.35238 117.5,15C 126.915,24.2609 130.082,35.4275 127,48.5C 125.476,53.8815 123.142,58.8815 120,63.5C 102.362,80.1378 85.0284,97.1378 68,114.5C 60.531,106.03 52.6977,97.8634 44.5,90C 36.0369,83.2057 27.8703,76.039 20,68.5C 8.44286,55.602 5.44286,40.9354 11,24.5C 16.2887,16.3693 23.4554,10.7027 32.5,7.5 Z"/></g>
</svg>
