<svg id="map" xmlns="http://www.w3.org/2000/svg" width="22" height="22" viewBox="0 0 22 22">
  <path id="Vector" d="M0,4.072v8.919c0,1.742,1.238,2.457,2.741,1.595l2.154-1.228a2.046,2.046,0,0,1,1.733-.046l4.813,2.411a2.079,2.079,0,0,0,1.733-.046L17.142,13.4a2.053,2.053,0,0,0,.926-1.595V2.889c0-1.742-1.237-2.457-2.741-1.595L13.173,2.523a2.046,2.046,0,0,1-1.733.046L6.628.167A2.079,2.079,0,0,0,4.895.213L.926,2.486A2.026,2.026,0,0,0,0,4.072Z" transform="translate(2.099 3.06)" fill="none" stroke="#292d32" stroke-linecap="round" stroke-linejoin="round" stroke-width="1.5"/>
  <path id="Vector-2" data-name="Vector" d="M0,0V11.917" transform="translate(7.847 3.667)" fill="none" stroke="#292d32" stroke-linecap="round" stroke-linejoin="round" stroke-width="1.5"/>
  <path id="Vector-3" data-name="Vector" d="M0,0V12.265" transform="translate(14.419 6.068)" fill="none" stroke="#292d32" stroke-linecap="round" stroke-linejoin="round" stroke-width="1.5"/>
  <path id="Vector-4" data-name="Vector" d="M0,0H22V22H0Z" transform="translate(22 22) rotate(180)" fill="none" opacity="0"/>
</svg>
