<?xml version="1.0" encoding="UTF-8"?>
<!DOCTYPE svg PUBLIC "-//W3C//DTD SVG 1.1//EN" "http://www.w3.org/Graphics/SVG/1.1/DTD/svg11.dtd">
<svg xmlns="http://www.w3.org/2000/svg" version="1.1" width="274px" height="271px" style="shape-rendering:geometricPrecision; text-rendering:geometricPrecision; image-rendering:optimizeQuality; fill-rule:evenodd; clip-rule:evenodd" xmlns:xlink="http://www.w3.org/1999/xlink">
<g><path style="opacity:1" fill="#fefefe" d="M -0.5,-0.5 C 90.8333,-0.5 182.167,-0.5 273.5,-0.5C 273.5,89.8333 273.5,180.167 273.5,270.5C 182.167,270.5 90.8333,270.5 -0.5,270.5C -0.5,180.167 -0.5,89.8333 -0.5,-0.5 Z"/></g>
<g><path style="opacity:1" fill="#173251" d="M 129.5,39.5 C 133.747,39.1778 137.747,40.0111 141.5,42C 157,57.5 172.5,73 188,88.5C 192.786,102.055 187.953,108.555 173.5,108C 164.363,99.8641 155.53,91.3641 147,82.5C 146.667,111.167 146.333,139.833 146,168.5C 144.125,174.377 140.125,177.044 134,176.5C 127.875,177.044 123.875,174.377 122,168.5C 121.667,139.833 121.333,111.167 121,82.5C 112.47,91.3641 103.637,99.8641 94.5,108C 80.0693,108.574 75.236,102.074 80,88.5C 96.395,71.9377 112.895,55.6044 129.5,39.5 Z"/></g>
<g><path style="opacity:1" fill="#173251" d="M 58.5,136.5 C 58.3025,141.75 58.9692,146.75 60.5,151.5C 65.2219,179.729 80.8885,199.229 107.5,210C 140.905,219.863 169.405,212.03 193,186.5C 200.855,176.104 205.689,164.438 207.5,151.5C 209.031,146.75 209.698,141.75 209.5,136.5C 212.137,127.937 217.804,125.103 226.5,128C 228.96,129.458 231.127,131.291 233,133.5C 233.521,183.642 210.355,217.475 163.5,235C 118.695,246.62 81.8615,234.454 53,198.5C 39.4719,178.916 33.4719,157.249 35,133.5C 42.0066,125.869 49.34,125.536 57,132.5C 57.7914,133.745 58.2914,135.078 58.5,136.5 Z"/></g>
<g><path style="opacity:1" fill="#b7bfc9" d="M 58.5,136.5 C 59.889,141.269 60.5557,146.269 60.5,151.5C 58.9692,146.75 58.3025,141.75 58.5,136.5 Z"/></g>
<g><path style="opacity:1" fill="#b7bfc9" d="M 209.5,136.5 C 209.698,141.75 209.031,146.75 207.5,151.5C 207.444,146.269 208.111,141.269 209.5,136.5 Z"/></g>
</svg>
