<?xml version="1.0" encoding="UTF-8"?>
<!DOCTYPE svg PUBLIC "-//W3C//DTD SVG 1.1//EN" "http://www.w3.org/Graphics/SVG/1.1/DTD/svg11.dtd">
<svg xmlns="http://www.w3.org/2000/svg" version="1.1" width="225px" height="225px" style="shape-rendering:geometricPrecision; text-rendering:geometricPrecision; image-rendering:optimizeQuality; fill-rule:evenodd; clip-rule:evenodd" xmlns:xlink="http://www.w3.org/1999/xlink">
<g><path style="opacity:1" fill="#fefefe" d="M -0.5,-0.5 C 74.5,-0.5 149.5,-0.5 224.5,-0.5C 224.5,74.5 224.5,149.5 224.5,224.5C 149.5,224.5 74.5,224.5 -0.5,224.5C -0.5,149.5 -0.5,74.5 -0.5,-0.5 Z"/></g>
<g><path style="opacity:1" fill="#221f20" d="M 41.5,40.5 C 42.8734,40.3433 44.2068,40.51 45.5,41C 67.3333,62.8333 89.1667,84.6667 111,106.5C 132.833,84.6667 154.667,62.8333 176.5,41C 181.496,40.3357 183.33,42.5023 182,47.5C 160.319,69.0138 138.819,90.6805 117.5,112.5C 138.819,134.32 160.319,155.986 182,177.5C 182.899,183.932 180.399,185.765 174.5,183C 153.32,161.653 131.986,140.486 110.5,119.5C 88.6805,140.819 67.0138,162.319 45.5,184C 40.5036,184.664 38.6703,182.498 40,177.5C 61.6806,155.986 83.1806,134.32 104.5,112.5C 83.1805,91.6806 62.0138,70.6806 41,49.5C 38.8805,46.3025 39.0472,43.3025 41.5,40.5 Z"/></g>
</svg>
