<svg xmlns="http://www.w3.org/2000/svg" width="157.447" height="26.001" viewBox="0 0 157.447 26.001">
  <g id="Group_18478" data-name="Group 18478" transform="translate(946.825 -3646.618)">
    <g id="Group_18218" data-name="Group 18218" transform="translate(-899.295 3646.619)">
      <g id="Group_18195" data-name="Group 18195" transform="translate(0)">
        <path id="Path_11746" data-name="Path 11746" d="M539-170.071v-17.457l4.271-4.271h4.691v4.309h-2.017l-1.894,1.894V-172l1.894,1.894h7.726l1.82-1.82v-4.049h-5.571v-4.309H560.4v10.214l-4.271,4.271H543.273ZM562.725-191.8H581.52v4.271H567.777v6.574h12.666v4.2H567.777v6.686l6.161-.037v4.271l-11.212.037Zm28.983,4.271h-7.763V-191.8h20.577v4.271h-7.763V-165.8h-5.052Zm14.03-4.271h18.794v4.271H610.789v6.574h12.666v4.2H610.789v6.686h4.446v4.271h-9.5Zm41.181,17.383v2.956h-5.051v-1.8l-2.229-2.489h-8.1v9.954H626.49v-26H642.8l3.974,4.011v7.874l-2.526,2.563Zm-15.377-5.5h8.951l1.3-1.3v-5.051l-1.3-1.3h-8.951Z" transform="translate(-537.001 191.8)"/>
        <path id="Path_11771" data-name="Path 11771" d="M15.07-170.07v-17.458l4.272-4.272h5.018v4.309H22.016L20.122-185.6V-172l1.894,1.894h7.429l1.746-1.746v-2.117h5.052V-170l-4.2,4.2h-12.7Zm23.869,0v-17.458l4.272-4.272H56.583l4.272,4.272v17.458L56.583-165.8H43.211Zm14.969-.037L55.8-172V-185.6l-1.894-1.894H45.885L43.991-185.6V-172l1.894,1.894Z" transform="translate(-62.601 191.8)"/>
      </g>
    </g>
  </g>
</svg>
