<svg id="Group_18964" data-name="Group 18964" xmlns="http://www.w3.org/2000/svg" xmlns:xlink="http://www.w3.org/1999/xlink" width="1350" height="1349" viewBox="0 0 1350 1349">
  <defs>
    <clipPath id="clip-path">
      <rect id="Rectangle_7593" data-name="Rectangle 7593" width="1025" height="1093" transform="translate(185 169)" fill="#fff" stroke="#707070" stroke-width="1"/>
    </clipPath>
  </defs>
  <rect id="Rectangle_7594" data-name="Rectangle 7594" width="1350" height="1349" fill="#fff"/>
  <g id="Mask_Group_89" data-name="Mask Group 89" transform="translate(-23 -41)" clip-path="url(#clip-path)">
    <path id="Path_12574" data-name="Path 12574" d="M516.261,1032.512c57.172,0,150.123-4.661,194.6-49.125,14.279-14.737,23.208-36.155,23.208-58.916l0-414.574c0-58.469-24.6-112.869-64.725-153.093a220.263,220.263,0,0,0-153.535-64.272c-58.469-.479-113.815,24.1-153.539,63.822-40.615,40.619-63.822,94.623-63.822,153.539,0,58.469,24.1,113.368,63.825,153.983a214,214,0,0,0,73.872,49.057c22.217,8.813,45.949,13.634,69.727,15.505a244.3,244.3,0,0,0,37.152.57c3.148-.234,32.6-3.061,32.6-6.849V871.95a364.519,364.519,0,0,1-59.358,4.886c-198.823,0-360.582-161.761-360.584-360.579S317.43,155.674,516.252,155.676,876.834,317.437,876.836,516.264a358.712,358.712,0,0,1-25.668,133.922c-15.977,39.908,16.6,70.286,56.507,86.269,39.908,15.968,72.04,11.509,88.017-28.4a513.684,513.684,0,0,0,36.82-191.79C1032.509,231.6,800.915,0,516.251,0S0,231.591,0,516.256,231.6,1032.509,516.261,1032.512ZM568.145,564.8a77.127,77.127,0,0,1-53.113,21.362c-20.788,0-39.842-7.506-53.694-21.363-15.011-15.011-22.517-32.911-22.517-54.269,0-20.783,7.5-38.682,23.091-53.119a75.274,75.274,0,0,1,106.233,0c15.586,14.437,23.672,32.336,23.672,53.119S582.576,550.367,568.145,564.8Z" transform="translate(-16.218 715.155) rotate(-45)"/>
  </g>
</svg>
