<svg xmlns="http://www.w3.org/2000/svg" width="103.999" height="17.175" viewBox="0 0 103.999 17.175">
  <g id="Group_18482" data-name="Group 18482" transform="translate(946.825 -3646.618)">
    <g id="Group_18218" data-name="Group 18218" transform="translate(-946.825 3646.618)">
      <g id="Group_18195" data-name="Group 18195" transform="translate(0 0)">
        <path id="Path_11746" data-name="Path 11746" d="M539-177.448v-11.531l2.821-2.821h3.1v2.846h-1.332l-1.251,1.251v8.979l1.251,1.251h5.1l1.2-1.2v-2.674h-3.68v-2.846h6.919v6.747l-2.821,2.821h-8.489Zm15.67-14.352h12.414v2.821h-9.078v4.343h8.366v2.772h-8.366v4.416l4.07-.025v2.821l-7.406.025Zm19.144,2.821h-5.128V-191.8H582.28v2.821h-5.128v14.352h-3.337Zm9.267-2.821H595.5v2.821h-9.078v4.343h8.366v2.772h-8.366v4.416h2.937v2.821h-6.273Zm27.2,11.482v1.953h-3.337v-1.192l-1.472-1.644h-5.348v6.575H596.79V-191.8h10.77l2.625,2.65v5.2l-1.668,1.693Zm-10.157-3.631h5.913l.859-.859v-3.337L606.04-189h-5.913Z" transform="translate(-506.285 191.8)"/>
        <path id="Path_11771" data-name="Path 11771" d="M15.07-177.447v-11.532l2.822-2.822h3.314v2.846H19.658L18.407-187.7v8.98l1.251,1.251h4.907l1.153-1.153v-1.4h3.337v2.625l-2.772,2.772H17.892Zm15.766,0v-11.532l2.822-2.822h8.833l2.822,2.822v11.532l-2.822,2.822H33.658Zm9.888-.025,1.251-1.251v-8.98l-1.251-1.251h-5.3L34.173-187.7v8.98l1.251,1.251Z" transform="translate(-15.07 191.8)"/>
      </g>
    </g>
  </g>
</svg>
