<?xml version="1.0" encoding="UTF-8"?>
<!DOCTYPE svg PUBLIC "-//W3C//DTD SVG 1.1//EN" "http://www.w3.org/Graphics/SVG/1.1/DTD/svg11.dtd">
<svg xmlns="http://www.w3.org/2000/svg" version="1.1" width="274px" height="271px" style="shape-rendering:geometricPrecision; text-rendering:geometricPrecision; image-rendering:optimizeQuality; fill-rule:evenodd; clip-rule:evenodd" xmlns:xlink="http://www.w3.org/1999/xlink">
<g><path style="opacity:0.004" fill="#fefefe" d="M -0.5,10.5 C 88.5,10.5 177.5,10.5 266.5,10.5C 266.5,95.1667 266.5,179.833 266.5,264.5C 177.5,264.5 88.5,264.5 -0.5,264.5C -0.5,179.833 -0.5,95.1667 -0.5,10.5 Z"/></g>
<g><path style="opacity:0.999" fill="#173251" d="M 129.5,39.5 C 133.747,39.1778 137.747,40.0111 141.5,42C 157,57.5 172.5,73 188,88.5C 192.806,102.035 187.973,108.535 173.5,108C 164.363,99.8641 155.53,91.3641 147,82.5C 146.667,111.167 146.333,139.833 146,168.5C 144.125,174.377 140.125,177.044 134,176.5C 127.875,177.044 123.875,174.377 122,168.5C 121.667,139.833 121.333,111.167 121,82.5C 112.47,91.3641 103.637,99.8641 94.5,108C 80.0205,108.518 75.1872,102.018 80,88.5C 96.395,71.9377 112.895,55.6044 129.5,39.5 Z"/></g>
<g><path style="opacity:0.998" fill="#173251" d="M 41.5,127.5 C 47.6515,126.408 52.8182,128.075 57,132.5C 57.5383,163.756 70.705,187.923 96.5,205C 126.206,219.448 154.539,217.115 181.5,198C 200.252,181.112 209.752,159.946 210,134.5C 213.559,127.812 219.059,125.645 226.5,128C 228.96,129.458 231.127,131.291 233,133.5C 234.353,173.631 218.186,204.465 184.5,226C 144.519,246.571 106.519,243.571 70.5,217C 45.3799,195.256 33.5465,167.756 35,134.5C 36.6941,131.642 38.8607,129.309 41.5,127.5 Z"/></g>
</svg>
