<svg xmlns="http://www.w3.org/2000/svg" xmlns:xlink="http://www.w3.org/1999/xlink" width="29.423" height="30" viewBox="0 0 29.423 30">
  <defs>
    <linearGradient id="linear-gradient" x1="0.5" x2="0.5" y2="1" gradientUnits="objectBoundingBox">
      <stop offset="0" stop-color="#e8e7e7"/>
      <stop offset="1" stop-color="#9b9a9a"/>
    </linearGradient>
    <linearGradient id="linear-gradient-2" x1="0.068" y1="0.33" x2="1.017" y2="0.698" gradientUnits="objectBoundingBox">
      <stop offset="0" stop-color="#fff" stop-opacity="0.2"/>
      <stop offset="1" stop-color="#fff" stop-opacity="0"/>
    </linearGradient>
  </defs>
  <g id="Group_62816" data-name="Group 62816" transform="translate(-5.547 -5.072)">
    <ellipse id="Ellipse_16" data-name="Ellipse 16" cx="14.711" cy="15" rx="14.711" ry="15" transform="translate(5.547 5.072)" fill="url(#linear-gradient)"/>
    <g id="Group_62806" data-name="Group 62806" transform="translate(13.641 12.005)">
      <path id="Path_11860" data-name="Path 11860" d="M12.33,3.967A.3.3,0,0,0,12.4,3.96,3.642,3.642,0,0,0,15.3.328a.331.331,0,0,0-.4-.32A3.642,3.642,0,0,0,12,3.64a.33.33,0,0,0,.33.327Z" transform="translate(-5.39 0)" fill="#303c42"/>
      <path id="Path_11861" data-name="Path 11861" d="M12.227,3.867A3.642,3.642,0,0,1,15.133.235a.317.317,0,0,1,.151,0,.324.324,0,0,0-.1-.166.326.326,0,0,0-.276-.065A3.642,3.642,0,0,0,12,3.64a.328.328,0,0,0,.124.254.334.334,0,0,0,.124.059A.325.325,0,0,1,12.227,3.867Z" transform="translate(-5.39 0)" fill="#fff" opacity="0.2"/>
      <path id="Path_11862" data-name="Path 11862" d="M15,12.961A2.843,2.843,0,0,1,13.237,10.3,2.947,2.947,0,0,1,14.7,7.751a.33.33,0,0,0,.076-.506A3.943,3.943,0,0,0,11.915,6a4.039,4.039,0,0,0-1.549.344,3.685,3.685,0,0,1-1.426.318,3.685,3.685,0,0,1-1.426-.318A4.051,4.051,0,0,0,5.966,6C5.56,6,2,6.13,2,10.627,2,14.306,4.509,17.9,5.966,17.9a4.377,4.377,0,0,0,1.857-.393,2.713,2.713,0,0,1,1.117-.268,2.713,2.713,0,0,1,1.117.268,4.387,4.387,0,0,0,1.857.393c1.184,0,2.578-2.331,3.289-4.525A.33.33,0,0,0,15,12.961Z" transform="translate(-2 -2.034)" fill="#303c42"/>
      <path id="Path_11863" data-name="Path 11863" d="M2.234,10.862c0-4.5,3.56-4.627,3.966-4.627a4.039,4.039,0,0,1,1.549.344A3.682,3.682,0,0,0,9.175,6.9,3.685,3.685,0,0,0,10.6,6.578a4.051,4.051,0,0,1,1.549-.344,4.012,4.012,0,0,1,2.639,1.036c-.006-.008-.008-.019-.015-.026A3.943,3.943,0,0,0,11.915,6a4.039,4.039,0,0,0-1.549.344,3.685,3.685,0,0,1-1.426.318,3.685,3.685,0,0,1-1.426-.318A4.051,4.051,0,0,0,5.966,6C5.56,6,2,6.13,2,10.627a9.8,9.8,0,0,0,2.618,6.539A9.969,9.969,0,0,1,2.234,10.862Z" transform="translate(-2 -2.034)" fill="#fff" opacity="0.2"/>
      <path id="Path_11864" data-name="Path 11864" d="M8.941,3.967a.3.3,0,0,0,.069-.007A3.642,3.642,0,0,0,11.915.328a.331.331,0,0,0-.4-.32A3.642,3.642,0,0,0,8.61,3.64a.33.33,0,0,0,.331.327ZM15,10.927a2.843,2.843,0,0,1-1.765-2.664A2.947,2.947,0,0,1,14.7,5.717a.33.33,0,0,0,.076-.506,3.943,3.943,0,0,0-2.859-1.245,4.039,4.039,0,0,0-1.549.344,3.685,3.685,0,0,1-1.426.318A3.685,3.685,0,0,1,7.515,4.31a4.051,4.051,0,0,0-1.549-.344C5.56,3.966,2,4.1,2,8.593c0,3.678,2.509,7.271,3.966,7.271a4.377,4.377,0,0,0,1.857-.393A2.713,2.713,0,0,1,8.941,15.2a2.713,2.713,0,0,1,1.117.268,4.377,4.377,0,0,0,1.857.393c1.184,0,2.578-2.331,3.289-4.525A.33.33,0,0,0,15,10.927Z" transform="translate(-2 0)" fill="url(#linear-gradient-2)"/>
    </g>
  </g>
</svg>
