<svg id="G_Icon" data-name="G+ Icon" xmlns="http://www.w3.org/2000/svg" width="30" height="30" viewBox="0 0 30 30">
  <path id="Path_45" data-name="Path 45" d="M33.707,16.062H32.5V16H19v6h8.479a9.008,9.008,0,1,1-2.508-9.721l4.242-4.242a14.965,14.965,0,1,0,4.494,8.024Z" transform="translate(-4 -4)" fill="#ffc107"/>
  <path id="Path_46" data-name="Path 46" d="M6.3,12.019l4.931,3.615a8.98,8.98,0,0,1,14.311-3.354l4.242-4.242A14.97,14.97,0,0,0,6.3,12.019Z" transform="translate(-4.576 -4)" fill="#ff3d00"/>
  <path id="Path_47" data-name="Path 47" d="M19.549,40.014A14.938,14.938,0,0,0,29.606,36.12l-4.644-3.929a8.976,8.976,0,0,1-13.875-4.137L6.2,31.822A14.987,14.987,0,0,0,19.549,40.014Z" transform="translate(-4.549 -10.014)" fill="#4caf50"/>
  <path id="Path_48" data-name="Path 48" d="M38.707,20.062H37.5V20H24v6h8.479a9.04,9.04,0,0,1-3.067,4.178h0l4.644,3.929A14.521,14.521,0,0,0,39,23,14.965,14.965,0,0,0,38.707,20.062Z" transform="translate(-9 -8)" fill="#1976d2"/>
</svg>
