<svg xmlns="http://www.w3.org/2000/svg" width="18" height="18" viewBox="0 0 18 18">
  <g id="vuesax_outline_flash" data-name="vuesax/outline/flash" transform="translate(-428 -316)">
    <g id="flash" transform="translate(428 316)">
      <path id="Vector" d="M4.515,16.128a.932.932,0,0,1-.36-.068c-.3-.113-.81-.48-.81-1.642V9.581H1.59A1.463,1.463,0,0,1,.1,8.831a1.467,1.467,0,0,1,.42-1.62L6.195.761c.765-.87,1.388-.81,1.688-.7s.81.48.81,1.642V6.543h1.755a1.463,1.463,0,0,1,1.493.75,1.467,1.467,0,0,1-.42,1.62l-5.678,6.45A1.828,1.828,0,0,1,4.515,16.128ZM7.47,1.121a2.465,2.465,0,0,0-.428.39L1.365,7.961a.823.823,0,0,0-.24.42.99.99,0,0,0,.465.082H3.907a.567.567,0,0,1,.563.563v5.4a1.19,1.19,0,0,0,.1.585,2.465,2.465,0,0,0,.427-.39l5.678-6.45a.823.823,0,0,0,.24-.42.99.99,0,0,0-.465-.082H8.13a.567.567,0,0,1-.563-.562v-5.4A1.123,1.123,0,0,0,7.47,1.121Z" transform="translate(2.978 0.934)" fill="#fff"/>
      <path id="Vector-2" data-name="Vector" d="M0,0H18V18H0Z" fill="none" opacity="0"/>
    </g>
  </g>
</svg>
