<svg xmlns="http://www.w3.org/2000/svg" width="142.207" height="142.207" viewBox="0 0 142.207 142.207">
  <g id="vuesax_outline_danger" data-name="vuesax/outline/danger" transform="translate(-428 -252)">
    <g id="danger" transform="translate(428 252)">
      <path id="Vector" d="M4.444,38.514A4.476,4.476,0,0,1,0,34.07V4.444A4.476,4.476,0,0,1,4.444,0,4.476,4.476,0,0,1,8.888,4.444V34.07A4.476,4.476,0,0,1,4.444,38.514Z" transform="translate(66.66 48.884)" fill="#292d32"/>
      <path id="Vector-2" data-name="Vector" d="M5.925,11.865a8.9,8.9,0,0,1-1.185-.119,3.766,3.766,0,0,1-1.067-.356,4.487,4.487,0,0,1-1.067-.533l-.889-.711A6.231,6.231,0,0,1,0,5.94,6.231,6.231,0,0,1,1.718,1.733l.889-.711A4.487,4.487,0,0,1,3.674.489,3.766,3.766,0,0,1,4.74.133a5.072,5.072,0,0,1,2.311,0A3.575,3.575,0,0,1,8.177.489a4.487,4.487,0,0,1,1.067.533l.889.711A6.231,6.231,0,0,1,11.851,5.94a6.231,6.231,0,0,1-1.718,4.207l-.889.711a4.487,4.487,0,0,1-1.067.533,3.575,3.575,0,0,1-1.126.356A7.26,7.26,0,0,1,5.925,11.865Z" transform="translate(65.178 94.79)" fill="#292d32"/>
      <path id="Vector-3" data-name="Vector" d="M99.642,120.4H27.827c-11.554,0-20.383-4.207-24.886-11.791C-1.5,101.026-.911,91.249,4.718,81.117L40.626,16.532C46.551,5.866,54.728,0,63.734,0S80.918,5.866,86.843,16.532L122.75,81.177c5.629,10.132,6.281,19.85,1.778,27.493C120.025,116.195,111.2,120.4,99.642,120.4ZM63.734,8.888c-5.57,0-11.021,4.266-15.347,11.969L12.54,85.5c-4.029,7.229-4.681,13.865-1.9,18.665s8.947,7.407,17.243,7.407H99.7c8.3,0,14.4-2.607,17.243-7.407s2.133-11.377-1.9-18.665L79.081,20.857C74.755,13.154,69.3,8.888,63.734,8.888Z" transform="translate(7.369 10.903)" fill="#292d32"/>
      <path id="Vector-4" data-name="Vector" d="M0,0H142.207V142.207H0Z" fill="none" opacity="0"/>
    </g>
  </g>
</svg>
