<svg xmlns="http://www.w3.org/2000/svg" width="399.41" height="138.94" viewBox="0 0 399.41 138.94">
  <path id="Path_13183" data-name="Path 13183" d="M75.35-86.46A3.488,3.488,0,0,1,74.03-84.1a18.935,18.935,0,0,1-3.08,2.365,24.267,24.267,0,0,1-3.465,1.815A7.469,7.469,0,0,1,64.9-79.2a1.045,1.045,0,0,1-.88-.44,1.358,1.358,0,0,1-.33-.77,1.688,1.688,0,0,1,.22-.66q.11-.11-.165-.22a2.345,2.345,0,0,0-.825-.11q-2.42,0-8.47,2.31T39.6-72.655q-8.8,4.125-20.02,10.01T-4.4-49.665q-12.76,7.095-26.675,15.29T-59.29-17.27a2.915,2.915,0,0,1-1.43.44q-.77,0-.77-.88a1.08,1.08,0,0,1,.55-.99Q-48.18-26.4-37.125-33T-16.06-45.375Q-6.05-51.15,3.3-56.32T22-66.275q9.35-4.785,19.14-9.46t20.57-9.4a57.07,57.07,0,0,1,5.5-1.98,18.785,18.785,0,0,1,5.39-.99,5.439,5.439,0,0,1,1.815.33A1.286,1.286,0,0,1,75.35-86.46Zm-59.4,31.9q0,.66-.165,3.795t-.33,7.755q-.165,4.62-.385,10.4T14.63-20.9q-.22,5.94-.385,11.66T13.97,1.1a3.345,3.345,0,0,1-.6,1.815,1.83,1.83,0,0,1-1.6.935,2.017,2.017,0,0,1-1.485-.495q-.5-.5-.5-2.805,0-.77.165-4.62t.385-9.13q.22-5.28.55-11.33T11.44-35.7q.22-5.115.385-8.635t.165-3.74q0-.33-.11-1.43t-.11-2.31a14.023,14.023,0,0,1,.275-2.86A2.018,2.018,0,0,1,13.2-56.32a4.307,4.307,0,0,1,1.43-.33Q16.17-56.65,15.95-54.56ZM77.11-5.17a3.023,3.023,0,0,1-.88,1.595A13.145,13.145,0,0,1,73.81-1.43,14.842,14.842,0,0,1,70.07.44a14.566,14.566,0,0,1-4.84.77A8.612,8.612,0,0,1,60.555-.22a27.229,27.229,0,0,1-4.4-3.52A58.14,58.14,0,0,1,51.92-8.36a58.141,58.141,0,0,0-4.235-4.62,25.032,25.032,0,0,0-4.51-3.52,9.337,9.337,0,0,0-4.9-1.43,6.336,6.336,0,0,0-4.015,1.43,17.81,17.81,0,0,0-3.19,3.245,18.506,18.506,0,0,0-2.145,3.52,13.946,13.946,0,0,0-.88,2.255,50.775,50.775,0,0,1-1.045,6.105Q26.51.44,25.3.44a1.17,1.17,0,0,1-1.045-.66,3,3,0,0,1-.385-1.54q0-.33.11-2.475t.22-5.61q.11-3.465.275-7.975t.33-9.46q.165-4.95.33-10.12t.275-10.01q.22-6.93.275-12.6t.275-8.525a8.915,8.915,0,0,1,.44-2.8,1.058,1.058,0,0,1,.99-.715,3.211,3.211,0,0,1,2.09.715,2.472,2.472,0,0,1,.88,2.035q0,1.32-.275,4.455t-.5,7.755q-.22,3.96-.44,8.69t-.44,9.57q-.22,4.84-.385,9.35T28-21.34q-.165,3.63-.275,5.885t-.11,2.475q0,1.1.44,1.1a15.3,15.3,0,0,1,2.75-4.4,16.222,16.222,0,0,1,3.85-2.97,10.905,10.905,0,0,1,5.5-1.32,10.99,10.99,0,0,1,5.5,1.43,24.277,24.277,0,0,1,4.785,3.575,51.565,51.565,0,0,1,4.29,4.62Q56.76-8.47,58.85-6.325A25.211,25.211,0,0,0,63.14-2.75a8.347,8.347,0,0,0,4.62,1.43,8.11,8.11,0,0,0,3.19-.6A10.749,10.749,0,0,0,73.37-3.3a13.665,13.665,0,0,0,1.65-1.485,6.659,6.659,0,0,1,.99-.935,1.929,1.929,0,0,1,.55-.22Q77.11-5.94,77.11-5.17Zm35.2.55a2.917,2.917,0,0,1-.825,1.76A10.5,10.5,0,0,1,109.4-.99,13.592,13.592,0,0,1,106.59.5a8.107,8.107,0,0,1-2.97.6,5.689,5.689,0,0,1-3.135-.88A9.2,9.2,0,0,1,98.23-1.76a9.749,9.749,0,0,1-1.32-2.09,6.593,6.593,0,0,0-.55-1.1q-.22-.44-.44-.44a.9.9,0,0,0-.55.33A18.024,18.024,0,0,1,89.76-.5,11.23,11.23,0,0,1,85.36.55q-4.4,0-6.325-2.2A7.9,7.9,0,0,1,77.11-7.04a14.2,14.2,0,0,1,1.1-5.28,19.52,19.52,0,0,1,2.97-5.06,16.121,16.121,0,0,1,4.4-3.8,10.674,10.674,0,0,1,5.5-1.485q4.07,0,5.5,1.705a5.5,5.5,0,0,1,1.43,3.575,5.164,5.164,0,0,1-.605,2.53q-.6,1.1-1.155,1.1-.88,0-.825-1.045a9.764,9.764,0,0,0-.165-2.255,4.416,4.416,0,0,0-1.21-2.255q-.99-1.045-3.85-1.045a7.127,7.127,0,0,0-3.74.99,9.42,9.42,0,0,0-2.805,2.585A12.047,12.047,0,0,0,81.9-13.2a13.144,13.144,0,0,0-.605,3.85,8.341,8.341,0,0,0,1.375,4.785A4.756,4.756,0,0,0,86.9-2.53a7.1,7.1,0,0,0,4.84-1.54,12.307,12.307,0,0,0,2.75-3.355,29.986,29.986,0,0,0,1.6-3.355q.6-1.54,1.375-1.54a1.435,1.435,0,0,1,1.265.55,3.107,3.107,0,0,1,.5.99q0,.44.165,1.98a10.687,10.687,0,0,0,.825,3.08,9.388,9.388,0,0,0,1.87,2.805,4.211,4.211,0,0,0,3.19,1.265,5.829,5.829,0,0,0,2.42-.495,10.608,10.608,0,0,0,1.925-1.1,9.227,9.227,0,0,0,1.375-1.21,3.713,3.713,0,0,1,.77-.715l.22-.11Q112.31-5.28,112.31-4.62Zm51.15,1.76a2.337,2.337,0,0,1-.825,1.6A10.517,10.517,0,0,1,160.49.33,13.4,13.4,0,0,1,157.465,1.6a12.759,12.759,0,0,1-3.575.5A12.094,12.094,0,0,1,148.115.77a18.475,18.475,0,0,1-4.4-3.245,37.3,37.3,0,0,1-3.63-4.235,37.3,37.3,0,0,0-3.63-4.235,20.012,20.012,0,0,0-4.235-3.245,11.14,11.14,0,0,0-5.61-1.32,8.733,8.733,0,0,0-5.225,1.7,22.148,22.148,0,0,0-3.795,3.355,8.052,8.052,0,0,0-1.925,4.18,35.44,35.44,0,0,0-.275,4.4,2.306,2.306,0,0,1-.6,1.705A1.9,1.9,0,0,1,113.41.44q-1.43,0-1.43-1.65a14.625,14.625,0,0,0,.11-1.815v-2.7q0-2.09-.055-4.29t-.165-4.07q-.11-2.2-.33-4.4a.875.875,0,0,1,.99-.99,1.952,1.952,0,0,1,2.09,1.265,9.543,9.543,0,0,1,.495,2.805q.055,1.54.165,2.8t.88,1.265a.431.431,0,0,0,.44-.33,15.226,15.226,0,0,1,6.215-5.775,15.263,15.263,0,0,1,6.1-1.485,9.712,9.712,0,0,1,5.06,1.375,21.223,21.223,0,0,1,4.345,3.465,48.068,48.068,0,0,1,3.9,4.565,53.685,53.685,0,0,0,3.85,4.565,21.406,21.406,0,0,0,4.18,3.465A8.953,8.953,0,0,0,155.1-.11a7.16,7.16,0,0,0,2.97-.55,11.2,11.2,0,0,0,2.09-1.21q.88-.66,1.485-1.21a1.706,1.706,0,0,1,.935-.55.951.951,0,0,1,.66.33A.634.634,0,0,1,163.46-2.86ZM196.02.33a1.521,1.521,0,0,1-.88,1.375,3.392,3.392,0,0,1-1.65.5q-.66,0-1.1-1.32a17.7,17.7,0,0,1-1.32-3.63,31.818,31.818,0,0,0-1.925-5.115,30.463,30.463,0,0,0-3.3-5.39A16.823,16.823,0,0,0,180.4-17.82a31.258,31.258,0,0,1-8.36,3.19q-.22,4.62-.275,7.645T171.71-3.41A21.229,21.229,0,0,1,171.545-.5,1.174,1.174,0,0,1,170.28.66q-1.21,0-1.54-.55a2.752,2.752,0,0,1-.33-1.43q0-.66.055-2.8t.165-4.345q.11-2.64.11-5.72a5.334,5.334,0,0,1-1.045.11H166.65a17.624,17.624,0,0,1-6.16-.77q-1.87-.77-1.87-1.98a2.6,2.6,0,0,1,.825-1.76,7.9,7.9,0,0,1,2.255-1.595,23.756,23.756,0,0,1,3.3-1.32,15.448,15.448,0,0,1,3.96-.715q0-.55.055-2.805t.165-5.72q.11-3.465.22-7.7t.22-8.525q.33-10.12.55-22.77a2.738,2.738,0,0,1,.33-1.21q.33-.66,1.54-.66a2.869,2.869,0,0,1,2.035.935,2.855,2.855,0,0,1,.385,1.925q0,.88-.11,3.465t-.275,6.27q-.165,3.685-.385,8.2t-.44,9.35q-.22,4.84-.44,9.79t-.44,9.46a26.645,26.645,0,0,1,8.25,1.87,41.177,41.177,0,0,0,11.66-12.76q.88-1.65,1.32-1.65.55,0,.88.715a3.086,3.086,0,0,1,.33,1.265,5.783,5.783,0,0,1-.825,1.925,25.393,25.393,0,0,1-2.365,3.41,50.821,50.821,0,0,1-3.74,4.125,31.5,31.5,0,0,1-5.06,4.07,22.99,22.99,0,0,1,8.8,8.36A35.1,35.1,0,0,1,196.02.33ZM178.2-18.81a32.28,32.28,0,0,0-5.83-1.43l-.22,3.96a29.47,29.47,0,0,0,3.025-1.045A25.516,25.516,0,0,0,178.2-18.81Zm-9.35-1.65a9.676,9.676,0,0,0-4.675,1.1q-2.035,1.1-2.035,2.2,0,.66.99,1.155a8.686,8.686,0,0,0,3.52.5h1.045a5.334,5.334,0,0,0,1.045-.11q0-.33.055-1.1t.055-1.65Zm114.4-26.29A70.516,70.516,0,0,1,281.1-29.59a57.909,57.909,0,0,1-6.325,15.62q-.22,11-.44,21.175t-.385,18.425q-.165,8.25-.22,14.08t-.055,7.92a7.7,7.7,0,0,1-.275,2.475q-.275.715-1.705.715-1.76.11-2.145-1.045a5.753,5.753,0,0,1-.275-2.365q.33-3.96.6-10.01t.605-13.53q.33-7.48.605-15.95t.495-17.16a33.983,33.983,0,0,1-9.57,8.415A23.835,23.835,0,0,1,249.81,2.31q-7.7,0-12.76-3.685a27.545,27.545,0,0,1-8.14-9.46,43.339,43.339,0,0,1-4.345-12.76A76.179,76.179,0,0,1,223.3-37.18q0-3.74.22-7.26t.55-6.49q.33-2.97.715-5.225a30.626,30.626,0,0,1,.715-3.355q.55-1.76,1.1-3.355t1.76-1.595a1.53,1.53,0,0,1,1.485.715,3.548,3.548,0,0,1,.385,1.705,8.377,8.377,0,0,1-.22,1.925q-.22.935-.33,1.265-.66,2.75-1.045,5.115t-.66,4.73q-.275,2.365-.33,4.785t-.055,5.28a62.051,62.051,0,0,0,1.43,12.815,51.693,51.693,0,0,0,4.29,12.485,31.063,31.063,0,0,0,7.15,9.515A14.636,14.636,0,0,0,250.47-.33a21.815,21.815,0,0,0,12.485-3.52,31.717,31.717,0,0,0,8.745-8.8q.33-11.22.55-21.89t.385-19.14q.165-8.47.22-13.915t.055-6.215a2.789,2.789,0,0,1,.44-1.815,1.3,1.3,0,0,1,.99-.495,3.707,3.707,0,0,1,2.97,1.815,17.911,17.911,0,0,1,2.31,4.675,49.965,49.965,0,0,1,1.7,6.38q.715,3.52,1.1,6.765t.605,5.885Q283.25-47.96,283.25-46.75Zm-1.87,1.76a68.622,68.622,0,0,0-.6-9.625A66.982,66.982,0,0,0,279.4-61.82a30.349,30.349,0,0,0-1.485-4.565q-.715-1.595-1.045-1.6-.11,0-.11.33,0,.44-.22,4.675t-.495,11q-.275,6.765-.6,15.455t-.55,18.15a55.009,55.009,0,0,0,3.08-7.755q1.21-3.9,1.98-7.48a65.884,65.884,0,0,0,1.1-6.545A45.669,45.669,0,0,0,281.38-44.99Zm21.45,32.23a15.553,15.553,0,0,1-.77,4.73,14.707,14.707,0,0,1-2.255,4.4A12.071,12.071,0,0,1,296.12-.385,9.968,9.968,0,0,1,291.06.88a6.768,6.768,0,0,1-5.83-2.915,11.134,11.134,0,0,1-2.09-6.655,12.4,12.4,0,0,1,1.815-6.38,11.048,11.048,0,0,1,6-4.62.681.681,0,0,1,.77.77.928.928,0,0,1-.55.77,7.23,7.23,0,0,0-3.465,3.465,11.028,11.028,0,0,0-1.155,4.9,10,10,0,0,0,1.705,5.72,5.757,5.757,0,0,0,5.115,2.53,5.027,5.027,0,0,0,2.8-.825,8.495,8.495,0,0,0,2.2-2.09A9.4,9.4,0,0,0,299.8-7.37a11.434,11.434,0,0,0,.495-3.3,8.558,8.558,0,0,0-1.21-4.455,5.963,5.963,0,0,0-3.96-2.695q-.55-.22-1.265-.5a1.162,1.162,0,0,1-.825-.825,1.492,1.492,0,0,1,.44-1.1,2.847,2.847,0,0,1,.935-.77,3.9,3.9,0,0,1,1.815-.33,5.516,5.516,0,0,1,4.95,2.53A10.829,10.829,0,0,1,302.83-12.76ZM337.92-2.2a2.136,2.136,0,0,1-.55,1.155,7.37,7.37,0,0,1-1.54,1.43,9.322,9.322,0,0,1-2.42,1.21,9.707,9.707,0,0,1-3.19.5,7.427,7.427,0,0,1-3.74-.88,9.485,9.485,0,0,1-2.53-2.035,8.583,8.583,0,0,1-1.43-2.2,4.8,4.8,0,0,1-.44-1.375.431.431,0,0,0-.44-.33q-.22,0-.22.11a10.975,10.975,0,0,1-2.86,3.575A6.719,6.719,0,0,1,314.05.66a6.51,6.51,0,0,1-3.63-.935,6.557,6.557,0,0,1-2.255-2.53A12.038,12.038,0,0,1,307.01-6.38a24.719,24.719,0,0,1-.33-4.07,39.552,39.552,0,0,1,.33-5.225,33.657,33.657,0,0,1,.77-4.125q.33-1.32,1.1-1.32a2.3,2.3,0,0,1,1.32.6,1.736,1.736,0,0,1,.77,1.375,33.077,33.077,0,0,1-.275,3.74,39.983,39.983,0,0,0-.275,4.73,17.236,17.236,0,0,0,.935,5.885,3.752,3.752,0,0,0,3.9,2.585,4.341,4.341,0,0,0,3.355-1.375,11.026,11.026,0,0,0,2.035-3.19A15.054,15.054,0,0,0,321.7-10.4a20.121,20.121,0,0,0,.275-2.805q.11-2.09.55-2.42a1.782,1.782,0,0,1,1.1-.33,1.278,1.278,0,0,1,1.155.6,1.988,1.988,0,0,1,.385.935q0,.11-.055.77t-.055,1.32q0,.66-.055,1.21l-.055.55a17.676,17.676,0,0,0,.275,2.365,17.01,17.01,0,0,0,.99,3.52,9.267,9.267,0,0,0,2.09,3.19A4.98,4.98,0,0,0,331.98-.11a4.624,4.624,0,0,0,2.09-.44,10.07,10.07,0,0,0,1.54-.935q.66-.495,1.1-.88a1.263,1.263,0,0,1,.77-.385Q337.92-2.75,337.92-2.2Z" transform="translate(61.49 88.11)"/>
</svg>
