<svg xmlns="http://www.w3.org/2000/svg" width="61.964" height="62.227" viewBox="0 0 61.964 62.227">
  <g id="icons8-whatsapp-144" transform="translate(0 0)">
    <path id="Path_12787" data-name="Path 12787" d="M63.742,64.137,59.582,48.953a29.316,29.316,0,1,0-25.4,14.677h.012A29.281,29.281,0,0,0,48.2,60.061Z" transform="translate(-3.323 -3.457)" fill="#fff"/>
    <path id="Path_12788" data-name="Path 12788" d="M64.014,65.181a.771.771,0,0,0,.744-.974L60.684,49.33A30.082,30.082,0,1,0,48.572,61.158l15.246,4A.706.706,0,0,0,64.014,65.181Z" transform="translate(-3.595 -3.729)" fill="#fff"/>
    <path id="Path_12789" data-name="Path 12789" d="M34.726,5.544a29.315,29.315,0,0,0,0,58.629h.012a29.281,29.281,0,0,0,14.008-3.568l15.54,4.076L60.127,49.5a29.318,29.318,0,0,0-25.4-43.953m0,58.629h0m0,0h0M34.726,4h0A30.865,30.865,0,0,1,61.786,49.7l3.991,14.573a1.544,1.544,0,0,1-1.882,1.9L48.938,62.254A30.861,30.861,0,1,1,34.726,4Z" transform="translate(-3.868 -4)" fill="#cfd8dc"/>
    <path id="Path_12790" data-name="Path 12790" d="M15.362,15.348A24.366,24.366,0,0,1,53.237,45.523l-.581.922,2.463,8.987L45.9,53.014l-.891.528a24.318,24.318,0,0,1-12.4,3.4H32.6A24.366,24.366,0,0,1,15.362,15.348Z" transform="translate(-1.737 -1.713)" fill="#40c351"/>
    <path id="Path_12791" data-name="Path 12791" d="M21.935,16.5c-.548-1.22-1.126-1.244-1.649-1.266-.428-.019-.916-.017-1.4-.017a2.692,2.692,0,0,0-1.953.917,8.21,8.21,0,0,0-2.564,6.108c0,3.6,2.625,7.087,2.991,7.575s5.067,8.12,12.512,11.056c6.187,2.439,7.446,1.955,8.79,1.833s4.334-1.771,4.944-3.482a6.134,6.134,0,0,0,.428-3.482c-.184-.306-.672-.488-1.4-.855S38.291,32.745,37.62,32.5s-1.159-.366-1.649.367-1.891,2.382-2.319,2.87-.855.551-1.587.184a20.049,20.049,0,0,1-5.89-3.634A22.067,22.067,0,0,1,22.1,27.217c-.428-.732-.046-1.129.321-1.495.329-.329.732-.855,1.1-1.283a5.009,5.009,0,0,0,.732-1.221,1.347,1.347,0,0,0-.062-1.283C24.01,21.567,22.586,17.945,21.935,16.5Z" transform="translate(1.621 2.1)" fill="#fff" fill-rule="evenodd"/>
  </g>
</svg>
