<svg xmlns="http://www.w3.org/2000/svg" width="14.201" height="8.748" viewBox="0 0 14.201 8.748">
  <g id="noun-iron-1717821" transform="translate(0.1 0.1)">
    <path id="Path_11763" data-name="Path 11763" d="M13.849,8.548H.149A.148.148,0,0,1,0,8.4H0A4.649,4.649,0,0,1,4.644,3.754h7.843L11.588.3H5.621A.148.148,0,0,1,5.471.149.148.148,0,0,1,5.621,0H11.7a.145.145,0,0,1,.143.111L14,8.359a.149.149,0,0,1-.108.182.151.151,0,0,1-.039.006ZM.3,8.249H13.658l-1.093-4.2H4.644A4.349,4.349,0,0,0,.3,8.249Z" stroke="#000" stroke-width="0.2"/>
  </g>
</svg>
