<svg xmlns="http://www.w3.org/2000/svg" width="14.15" height="12.097" viewBox="0 0 14.15 12.097">
  <g id="Group_18495" data-name="Group 18495" transform="translate(-1154.959 -1003.861)">
    <rect id="Rectangle_7459" data-name="Rectangle 7459" width="11.186" height="10.861" transform="translate(1155.109 1004.011)" fill="none" stroke="#000" stroke-linecap="round" stroke-linejoin="round" stroke-width="0.3"/>
    <g id="noun-dry-clean-538817" transform="translate(1155.228 1003.867)">
      <g id="Group_18381" data-name="Group 18381" transform="translate(0 0)">
        <path id="Path_11762" data-name="Path 11762" d="M5.575,11.149a5.575,5.575,0,1,1,5.575-5.575A5.581,5.581,0,0,1,5.575,11.149Zm0-10.685a5.11,5.11,0,1,0,5.11,5.11A5.116,5.116,0,0,0,5.575.465Z" transform="translate(0 0)"/>
      </g>
    </g>
    <g id="Group_18386" data-name="Group 18386" transform="translate(1162.593 1009.442)">
      <rect id="Rectangle_7460" data-name="Rectangle 7460" width="6.516" height="6.516" fill="#fff"/>
      <path id="Union_1" data-name="Union 1" d="M1.987,1.988,0,3.975,1.987,1.988,0,0,1.987,1.988,3.974,0,1.987,1.988,3.974,3.975Z" transform="translate(1.271 1.27)" fill="none" stroke="#292d32" stroke-linecap="round" stroke-linejoin="round" stroke-width="0.4"/>
    </g>
  </g>
</svg>
