<svg xmlns="http://www.w3.org/2000/svg" width="14.201" height="11.558" viewBox="0 0 14.201 11.558">
  <g id="noun-washing-1117726" transform="translate(-6.649 -14.823)">
    <path id="Path_11755" data-name="Path 11755" d="M20.5,14.939a.324.324,0,0,0-.39.24l-.563,2.376a1.483,1.483,0,0,1-1.857-1.437v-.2a.324.324,0,0,0-.647,0v.2a1.485,1.485,0,0,1-2.97,0v-.2a.324.324,0,1,0-.647,0v.2a1.485,1.485,0,1,1-2.97,0v-.2a.324.324,0,1,0-.647,0v.2A1.487,1.487,0,0,1,8.323,17.6a1.471,1.471,0,0,1-.372-.048l-.563-2.376a.324.324,0,0,0-.63.149l2.536,10.7a.324.324,0,0,0,.315.249h8.28a.324.324,0,0,0,.315-.249l2.536-10.7A.324.324,0,0,0,20.5,14.939Zm-2.867,10.7H9.865l-1.752-7.4c.069.007.139.011.21.011a2.133,2.133,0,0,0,1.809-1,2.131,2.131,0,0,0,3.618,0,2.131,2.131,0,0,0,3.618,0,2.133,2.133,0,0,0,1.809,1c.07,0,.14,0,.209-.011Z" transform="translate(0 0)" stroke="#fff" stroke-width="0.2"/>
  </g>
</svg>
