<svg xmlns="http://www.w3.org/2000/svg" width="50" height="50" viewBox="0 0 50 50">
  <g id="Group_62925" data-name="Group 62925" transform="translate(10538.865 -2041)">
    <circle id="Ellipse_37" data-name="Ellipse 37" cx="25" cy="25" r="25" transform="translate(-10538.865 2041)" fill="#1d1d1d" opacity="0.6"/>
    <g id="vuesax_outline_volume-slash" data-name="vuesax/outline/volume-slash" transform="translate(-10526.203 2053.779)">
      <g id="volume-slash" transform="translate(0 0)">
        <path id="Vector" d="M5.778,14.418H3.768A3.4,3.4,0,0,1,0,10.65V6.63A3.4,3.4,0,0,1,3.768,2.862H5.205a1.3,1.3,0,0,0,.663-.191L8.8.832A3.917,3.917,0,0,1,12.823.37a3.907,3.907,0,0,1,1.738,3.658v.965a.754.754,0,0,1-1.507,0V4.028A2.533,2.533,0,0,0,12.089,1.7,2.534,2.534,0,0,0,9.6,2.118L6.663,3.947a2.676,2.676,0,0,1-1.457.422H3.768c-1.588,0-2.261.673-2.261,2.261v4.02c0,1.588.673,2.261,2.261,2.261h2.01a.754.754,0,1,1,0,1.507Z" transform="translate(1.256 3.419)" fill="#fff"/>
        <path id="Vector-2" data-name="Vector" d="M2.9,8.431A4.844,4.844,0,0,1,.355,7.6a.752.752,0,1,1,.794-1.276,2.559,2.559,0,0,0,2.492.422,2.555,2.555,0,0,0,.965-2.331V.754a.754.754,0,0,1,1.507,0V4.412A3.938,3.938,0,0,1,4.375,8.069,3.119,3.119,0,0,1,2.9,8.431Z" transform="translate(9.714 12.26)" fill="#fff"/>
        <path id="Vector-3" data-name="Vector" d="M.754,8.118A.764.764,0,0,1,.3,7.967.754.754,0,0,1,.151,6.912,5.955,5.955,0,0,0,.875,1.044.752.752,0,1,1,2.261.461a7.492,7.492,0,0,1-.9,7.366A.761.761,0,0,1,.754,8.118Z" transform="translate(17.334 8.714)" fill="#fff"/>
        <path id="Vector-4" data-name="Vector" d="M.754,12.258A.764.764,0,0,1,.3,12.108a.754.754,0,0,1-.151-1.055A10.179,10.179,0,0,0,1.387,1.044.752.752,0,0,1,2.774.461a11.675,11.675,0,0,1-1.417,11.5A.729.729,0,0,1,.754,12.258Z" transform="translate(19.173 7.086)" fill="#fff"/>
        <path id="Vector-5" data-name="Vector" d="M.751,21.6a.745.745,0,0,1-.533-.221.758.758,0,0,1,0-1.065l20.1-20.1a.753.753,0,0,1,1.065,1.065l-20.1,20.1A.745.745,0,0,1,.751,21.6Z" transform="translate(1.259 1.259)" fill="#fff"/>
        <path id="Vector-6" data-name="Vector" d="M0,0H24.118V24.118H0Z" fill="none" opacity="0"/>
      </g>
    </g>
  </g>
</svg>
