<svg xmlns="http://www.w3.org/2000/svg" width="50" height="49" viewBox="0 0 50 49">
  <g id="Group_62919" data-name="Group 62919" transform="translate(-0.402 -0.033)">
    <ellipse id="Ellipse_37" data-name="Ellipse 37" cx="25" cy="24.5" rx="25" ry="24.5" transform="translate(0.402 0.033)" fill="#1d1d1d" opacity="0.6"/>
    <g id="Group_62920" data-name="Group 62920" transform="translate(13.468 12.614)">
      <g id="vuesax_outline_volume-high" data-name="vuesax/outline/volume-high" transform="translate(0 0)">
        <g id="volume-high">
          <path id="Vector" d="M11.367,17.3a4.849,4.849,0,0,1-2.545-.835L5.885,14.625a1.3,1.3,0,0,0-.664-.191H3.772A3.4,3.4,0,0,1,0,10.661V6.637A3.4,3.4,0,0,1,3.772,2.865H5.211a1.3,1.3,0,0,0,.664-.191L8.812.833A3.921,3.921,0,0,1,12.836.37a3.911,3.911,0,0,1,1.74,3.662v9.225a3.942,3.942,0,0,1-1.74,3.662A2.859,2.859,0,0,1,11.367,17.3ZM3.772,4.384c-1.589,0-2.263.674-2.263,2.263v4.024c0,1.589.674,2.263,2.263,2.263H5.211a2.713,2.713,0,0,1,1.469.423L9.617,15.2a2.559,2.559,0,0,0,2.495.423,2.558,2.558,0,0,0,.966-2.334V4.042a2.535,2.535,0,0,0-.966-2.334,2.534,2.534,0,0,0-2.495.423L6.67,3.962a2.679,2.679,0,0,1-1.459.423Z" transform="translate(1.257 3.412)" fill="#fff"/>
          <path id="Vector-2" data-name="Vector" d="M.755,9.557A.764.764,0,0,1,.3,9.406.755.755,0,0,1,.151,8.35a5.976,5.976,0,0,0,0-7.142A.754.754,0,1,1,1.358.3a7.515,7.515,0,0,1,0,8.953A.743.743,0,0,1,.755,9.557Z" transform="translate(17.353 7.293)" fill="#fff"/>
          <path id="Vector-3" data-name="Vector" d="M.755,14.587A.764.764,0,0,1,.3,14.436.755.755,0,0,1,.151,13.38a10.2,10.2,0,0,0,0-12.172A.754.754,0,1,1,1.358.3a11.71,11.71,0,0,1,0,13.983A.73.73,0,0,1,.755,14.587Z" transform="translate(19.194 4.778)" fill="#fff"/>
          <path id="Vector-4" data-name="Vector" d="M0,0H24.143V24.143H0Z" fill="none" opacity="0"/>
        </g>
      </g>
    </g>
  </g>
</svg>
